<?xml version="1.0" encoding="utf-8"?>
<!-- Generator: Adobe Illustrator 22.1.0, SVG Export Plug-In . SVG Version: 6.00 Build 0)  -->
<svg version="1.1" id="Layer_1" xmlns="http://www.w3.org/2000/svg" xmlns:xlink="http://www.w3.org/1999/xlink" x="0px" y="0px"
	 width="30px" height="30px" viewBox="0 0 30 30" style="enable-background:new 0 0 30 30;" xml:space="preserve">
<style type="text/css">
	.st0{fill:url(#SVGID_1_);}
</style>
<g>
	<linearGradient id="SVGID_1_" gradientUnits="userSpaceOnUse" x1="0" y1="15" x2="30" y2="15">
		<stop  offset="0" style="stop-color:#5693CD"/>
		<stop  offset="1" style="stop-color:#5596D1"/>
	</linearGradient>
	<path class="st0" d="M25.6,4.4C22.8,1.6,19,0,15,0S7.2,1.6,4.4,4.4S0,11,0,15s1.6,7.8,4.4,10.6S11,30,15,30c2.3,0,4.4-0.4,6.1-1.2
		c1.6-0.8,2.8-1.9,3.3-3.1c0.6-1.5,0.3-3-0.9-4.2l0,0c0,0,0,0,0.1-0.1c0.9-0.9,0.9-2.1,0-3l-2.1-2.1c-0.4-0.4-0.9-0.7-1.5-0.7
		s-1,0.2-1.5,0.7l-1.1,1.1c-0.1,0-0.1-0.1-0.2-0.1c-0.1-0.1-0.3-0.1-0.4-0.2c-1.1-0.7-2.2-1.7-3.1-2.9c-0.4-0.5-0.7-1-1-1.5
		c0.3-0.3,0.5-0.5,0.8-0.8c0.1-0.1,0.2-0.2,0.3-0.3c0.9-0.9,0.9-2.1,0-3l-1.1-1.1c-0.1-0.1-0.2-0.2-0.4-0.4
		c-0.2-0.2-0.5-0.5-0.7-0.7c-0.4-0.4-0.9-0.6-1.5-0.6c-0.5,0-1,0.2-1.5,0.6c0,0,0,0,0,0L7.4,7.8C6.8,8.3,6.5,9,6.5,9.8
		c-0.1,1.2,0.2,2.3,0.5,3c0.6,1.7,1.6,3.3,3,5c1.7,2,3.8,3.7,6.1,4.8c0.9,0.4,2.1,0.9,3.5,1c0.1,0,0.2,0,0.3,0c1,0,1.8-0.3,2.4-1
		c0,0,0,0,0,0c0,0,0,0,0.1-0.1l0,0c0.8,0.8,1,1.7,0.6,2.6c-0.7,1.7-3.5,3.4-8,3.4C7.5,28.5,1.5,22.5,1.5,15S7.5,1.5,15,1.5
		S28.5,7.5,28.5,15c0,1.2-0.2,2.4-0.5,3.6c-0.1,0.4,0.1,0.8,0.5,0.9c0.4,0.1,0.8-0.1,0.9-0.5c0.4-1.3,0.5-2.6,0.5-4
		C30,11,28.4,7.2,25.6,4.4z M21.2,21.5c-0.4,0.4-0.7,0.5-1.3,0.5c-0.1,0-0.1,0-0.2,0c-1.1-0.1-2.2-0.5-2.9-0.9
		c-2.2-1-4.1-2.5-5.6-4.4c-1.3-1.6-2.2-3-2.8-4.6C8,11.3,7.9,10.5,7.9,9.9c0-0.4,0.2-0.7,0.5-1l1.3-1.3c0.1-0.1,0.3-0.2,0.4-0.2
		s0.3,0.1,0.4,0.2c0,0,0,0,0,0c0.2,0.2,0.5,0.4,0.7,0.7c0.1,0.1,0.2,0.3,0.4,0.4l1.1,1.1c0.3,0.3,0.3,0.6,0,0.9
		c-0.1,0.1-0.2,0.2-0.3,0.3c-0.3,0.3-0.6,0.6-1,0.9c0,0,0,0,0,0c-0.5,0.5-0.3,0.9-0.3,1.1c0,0,0,0,0,0c0.3,0.7,0.7,1.3,1.3,2.1l0,0
		c1.1,1.3,2.2,2.4,3.5,3.2c0.2,0.1,0.3,0.2,0.5,0.3c0.1,0.1,0.3,0.1,0.4,0.2c0,0,0,0,0.1,0c0.2,0.1,0.3,0.1,0.5,0.1
		c0.3,0,0.5-0.1,0.7-0.3l1.3-1.3c0.1-0.1,0.3-0.2,0.4-0.2c0.2,0,0.3,0.1,0.4,0.2c0,0,0,0,0,0l2.1,2.1c0.3,0.3,0.3,0.6,0,0.9l0,0
		c-0.1,0.2-0.3,0.3-0.5,0.5C21.7,21,21.4,21.3,21.2,21.5z"/>
</g>
</svg>
