<?xml version="1.0" encoding="utf-8"?>
<!-- Generator: Adobe Illustrator 22.1.0, SVG Export Plug-In . SVG Version: 6.00 Build 0)  -->
<svg version="1.1" id="Layer_1" xmlns="http://www.w3.org/2000/svg" xmlns:xlink="http://www.w3.org/1999/xlink" x="0px" y="0px"
	 width="30px" height="30px" viewBox="0 0 30 30" style="enable-background:new 0 0 30 30;" xml:space="preserve">
<style type="text/css">
	.st0{fill:#757679;}
</style>
<g>
	<g>
		<path class="st0" d="M20.7,15H17c-0.2-0.7-0.8-1.3-1.5-1.5V8.3c0-0.3-0.2-0.5-0.5-0.5c-0.3,0-0.5,0.2-0.5,0.5v5.2
			c-0.9,0.2-1.5,1-1.5,2c0,1.1,0.9,2.1,2.1,2.1c1,0,1.8-0.7,2-1.5h3.7c0.3,0,0.5-0.2,0.5-0.5C21.2,15.3,21,15,20.7,15L20.7,15z
			 M15,16.6c-0.6,0-1-0.5-1-1c0-0.6,0.5-1,1-1c0.6,0,1,0.5,1,1C16,16.1,15.6,16.6,15,16.6L15,16.6z M15,16.6"/>
		<path class="st0" d="M25.9,5L28,7.1c0.1,0.1,0.2,0.2,0.4,0.2c0.1,0,0.3-0.1,0.4-0.2c1.6-1.6,1.6-4.3,0-5.9c-1.6-1.6-4.3-1.6-5.9,0
			c-0.1,0.1-0.2,0.2-0.2,0.4c0,0.1,0.1,0.3,0.2,0.4l2.4,2.4l-0.9,0.9C21.8,3,18.6,1.6,15,1.6c-3.6,0-6.8,1.3-9.3,3.6L4.8,4.3L7.2,2
			c0.1-0.1,0.2-0.2,0.2-0.4c0-0.1-0.1-0.3-0.2-0.4c-1.6-1.6-4.3-1.6-5.9,0c-1.6,1.6-1.6,4.3,0,5.9c0.1,0.1,0.2,0.2,0.4,0.2
			c0.1,0,0.3-0.1,0.4-0.2L4.1,5L5,5.9c-2.4,2.5-3.9,5.9-3.9,9.7c0,5.1,2.8,9.6,6.9,12l-1.6,1.6c-0.2,0.2-0.2,0.5,0,0.7
			C6.5,29.9,6.6,30,6.7,30c0.1,0,0.3-0.1,0.4-0.2l1.8-1.8c1.8,0.9,3.9,1.4,6.1,1.4c2.2,0,4.3-0.5,6.1-1.4l1.8,1.8
			c0.1,0.1,0.2,0.2,0.4,0.2c0.1,0,0.3-0.1,0.4-0.2c0.2-0.2,0.2-0.5,0-0.7l-1.6-1.6c4.1-2.4,6.9-6.9,6.9-12c0-3.7-1.5-7.1-3.9-9.7
			L25.9,5z M28,2c1.1,1.1,1.2,2.8,0.3,4.1l-4.4-4.4C25.2,0.7,26.9,0.8,28,2L28,2z M1.7,6C0.8,4.8,0.9,3.1,2,2
			c1.1-1.1,2.8-1.2,4.1-0.3L1.7,6z M15,28.5c-7.1,0-12.9-5.8-12.9-12.9C2.1,8.4,7.9,2.7,15,2.7c7.1,0,12.9,5.8,12.9,12.9
			C27.9,22.7,22.1,28.5,15,28.5L15,28.5z M15,28.5"/>
	</g>
	<path class="st0" d="M15,5.2c0.3,0,0.5-0.2,0.5-0.5V4.1c0-0.3-0.2-0.5-0.5-0.5c-0.3,0-0.5,0.2-0.5,0.5v0.5
		C14.5,4.9,14.7,5.2,15,5.2L15,5.2z M15,5.2"/>
	<path class="st0" d="M15,25.8c-0.3,0-0.5,0.2-0.5,0.5v0.5c0,0.3,0.2,0.5,0.5,0.5c0.3,0,0.5-0.2,0.5-0.5v-0.5
		C15.5,26,15.3,25.8,15,25.8L15,25.8z M15,25.8"/>
	<path class="st0" d="M25.8,16h0.5c0.3,0,0.5-0.2,0.5-0.5c0-0.3-0.2-0.5-0.5-0.5h-0.5c-0.3,0-0.5,0.2-0.5,0.5
		C25.3,15.8,25.5,16,25.8,16L25.8,16z M25.8,16"/>
	<path class="st0" d="M4.2,15H3.7c-0.3,0-0.5,0.2-0.5,0.5c0,0.3,0.2,0.5,0.5,0.5h0.5c0.3,0,0.5-0.2,0.5-0.5C4.7,15.2,4.5,15,4.2,15
		L4.2,15z M4.2,15"/>
	<path class="st0" d="M22.7,7.1l-0.4,0.4c-0.2,0.2-0.2,0.5,0,0.7c0.1,0.1,0.2,0.2,0.4,0.2c0.1,0,0.3-0.1,0.4-0.2l0.4-0.4
		c0.2-0.2,0.2-0.5,0-0.7C23.2,6.9,22.9,6.9,22.7,7.1L22.7,7.1z M22.7,7.1"/>
	<path class="st0" d="M7,22.8l-0.4,0.4c-0.2,0.2-0.2,0.5,0,0.7C6.7,24,6.8,24,7,24c0.1,0,0.3-0.1,0.4-0.2l0.4-0.4
		c0.2-0.2,0.2-0.5,0-0.7C7.5,22.6,7.2,22.6,7,22.8L7,22.8z M7,22.8"/>
	<path class="st0" d="M23,22.8c-0.2-0.2-0.5-0.2-0.7,0c-0.2,0.2-0.2,0.5,0,0.7l0.4,0.4C22.8,24,22.9,24,23,24c0.1,0,0.3-0.1,0.4-0.2
		c0.2-0.2,0.2-0.5,0-0.7L23,22.8z M23,22.8"/>
	<path class="st0" d="M7.3,7.1c-0.2-0.2-0.5-0.2-0.7,0c-0.2,0.2-0.2,0.5,0,0.7L7,8.2c0.1,0.1,0.2,0.2,0.4,0.2c0.1,0,0.3-0.1,0.4-0.2
		c0.2-0.2,0.2-0.5,0-0.7L7.3,7.1z M7.3,7.1"/>
</g>
</svg>
