<?xml version="1.0" encoding="utf-8"?>
<!-- Generator: Adobe Illustrator 22.1.0, SVG Export Plug-In . SVG Version: 6.00 Build 0)  -->
<svg version="1.1" id="Layer_1" xmlns="http://www.w3.org/2000/svg" xmlns:xlink="http://www.w3.org/1999/xlink" x="0px" y="0px"
	 width="30px" height="30px" viewBox="0 0 30 30" style="enable-background:new 0 0 30 30;" xml:space="preserve">
<style type="text/css">
	.st0{fill:url(#SVGID_1_);}
	.st1{fill:url(#SVGID_2_);}
	.st2{fill:url(#SVGID_3_);}
	.st3{fill:url(#SVGID_4_);}
	.st4{fill:url(#SVGID_5_);}
	.st5{fill:url(#SVGID_6_);}
	.st6{fill:url(#SVGID_7_);}
	.st7{fill:url(#SVGID_8_);}
</style>
<g>
	<linearGradient id="SVGID_1_" gradientUnits="userSpaceOnUse" x1="-2.847533e-03" y1="15" x2="30.0028" y2="15">
		<stop  offset="0" style="stop-color:#7DD2E1"/>
		<stop  offset="1" style="stop-color:#6CBCD8"/>
	</linearGradient>
	<path class="st0" d="M15.1,30c-0.6,0-1.1-0.3-1.5-0.7C9.3,25,5,20.8,0.8,16.5c-1-1-1-1.9,0.1-3C4.6,9.7,8.4,5.9,12.3,2
		c0.4-0.4,0.9-0.9,1.3-1.3c1-1,1.9-1,3,0C18.7,3,21,5.3,23.2,7.5c2,2,3.9,3.9,5.9,5.9c1.2,1.2,1.2,2.1,0,3.2
		c-4.3,4.3-8.5,8.5-12.8,12.8C16,29.8,15.6,30,15.1,30z M0.4,15.1c0,0.5,0.3,0.9,0.6,1.3c4.2,4.2,8.3,8.4,12.5,12.5c1,1,1.9,1,2.8,0
		c4.1-4.1,8.1-8.1,12.2-12.2c1.3-1.3,1.3-2.1,0-3.4c-1.4-1.4-2.8-2.8-4.3-4.3c-2.6-2.6-5.2-5.3-7.9-7.9c-1-1-1.9-1-2.9,0
		c-1.1,1.1-2.2,2.2-3.3,3.3c-3,3-6,6-9,9C0.8,14,0.4,14.4,0.4,15.1z"/>
	<linearGradient id="SVGID_2_" gradientUnits="userSpaceOnUse" x1="1.2664" y1="15" x2="28.7336" y2="15">
		<stop  offset="0" style="stop-color:#7DD2E1"/>
		<stop  offset="1" style="stop-color:#6CBCD8"/>
	</linearGradient>
	<path class="st1" d="M1.3,15c0-0.5,0.2-0.9,0.6-1.2c3.6-3.6,7.1-7.1,10.7-10.7c0.3-0.3,0.6-0.6,0.9-0.9c1.2-1.2,1.9-1.2,3.1,0
		c1.7,1.7,3.4,3.4,5.1,5.1c2.1,2.1,4.1,4.1,6.2,6.2c1.2,1.2,1.2,2,0,3.2C24,20.4,20.2,24.2,16.5,28c-1.1,1.1-1.9,1.1-3,0
		c-3.6-3.6-7.2-7.2-10.8-10.8C2.4,16.8,2,16.4,1.7,16C1.4,15.8,1.3,15.4,1.3,15z M15.1,27.8c0.4,0,0.8-0.3,1.1-0.6
		c3.6-3.6,7.3-7.3,10.9-10.9c0.8-0.8,0.8-1.6,0-2.5c-0.7-0.7-1.3-1.3-2-2c-2.9-2.9-5.8-5.8-8.7-8.7c-1-1-1.8-1.1-2.7-0.2
		c-3.7,3.7-7.4,7.4-11,11.1c-0.7,0.7-0.8,1.6,0,2.3c3.7,3.7,7.4,7.4,11,11.1C14.1,27.5,14.5,27.8,15.1,27.8z"/>
	<g>
		<linearGradient id="SVGID_3_" gradientUnits="userSpaceOnUse" x1="5.5731" y1="15" x2="7.7652" y2="15">
			<stop  offset="0" style="stop-color:#7DD2E1"/>
			<stop  offset="1" style="stop-color:#6CBCD8"/>
		</linearGradient>
		<path class="st2" d="M6.5,14.1v0.6h1.1v0.7H6.5v0.6h1.2v0.8H5.6v-3.4h2.2v0.8H6.5z"/>
		<linearGradient id="SVGID_4_" gradientUnits="userSpaceOnUse" x1="7.9573" y1="15" x2="11.4331" y2="15">
			<stop  offset="0" style="stop-color:#7DD2E1"/>
			<stop  offset="1" style="stop-color:#6CBCD8"/>
		</linearGradient>
		<path class="st3" d="M10.3,16.7l-0.7-1l-0.6,1H8L9.1,15L8,13.3h1.1l0.6,0.9l0.5-0.9h1.1L10.3,15l1.2,1.7H10.3z"/>
		<linearGradient id="SVGID_5_" gradientUnits="userSpaceOnUse" x1="11.7118" y1="15" x2="13.904" y2="15">
			<stop  offset="0" style="stop-color:#7DD2E1"/>
			<stop  offset="1" style="stop-color:#6CBCD8"/>
		</linearGradient>
		<path class="st4" d="M12.7,14.1v0.6h1.1v0.7h-1.1v0.6h1.2v0.8h-2.2v-3.4h2.2v0.8H12.7z"/>
		<linearGradient id="SVGID_6_" gradientUnits="userSpaceOnUse" x1="14.3365" y1="15.0072" x2="18.2929" y2="15.0072">
			<stop  offset="0" style="stop-color:#7DD2E1"/>
			<stop  offset="1" style="stop-color:#6CBCD8"/>
		</linearGradient>
		<path class="st5" d="M18.3,13.3v3.4h-0.9v-1.9l-0.6,1.9h-0.8l-0.6-1.9v1.9h-0.9v-3.4h1.2l0.8,2.2l0.8-2.2H18.3z"/>
		<linearGradient id="SVGID_7_" gradientUnits="userSpaceOnUse" x1="18.8169" y1="15" x2="21.4946" y2="15">
			<stop  offset="0" style="stop-color:#7DD2E1"/>
			<stop  offset="1" style="stop-color:#6CBCD8"/>
		</linearGradient>
		<path class="st6" d="M19.8,15.6v1.1h-0.9v-3.4h1.4c0.4,0,0.7,0.1,0.9,0.3c0.2,0.2,0.3,0.5,0.3,0.8c0,0.2,0,0.4-0.1,0.6
			c-0.1,0.2-0.2,0.3-0.4,0.4s-0.4,0.1-0.7,0.1H19.8z M20.5,14.4c0-0.2-0.1-0.4-0.4-0.4h-0.4v0.8h0.4C20.4,14.8,20.5,14.7,20.5,14.4z
			"/>
		<linearGradient id="SVGID_8_" gradientUnits="userSpaceOnUse" x1="21.6579" y1="15" x2="24.4269" y2="15">
			<stop  offset="0" style="stop-color:#7DD2E1"/>
			<stop  offset="1" style="stop-color:#6CBCD8"/>
		</linearGradient>
		<path class="st7" d="M24.4,13.3v0.8h-0.9v2.6h-0.9v-2.6h-0.9v-0.8H24.4z"/>
	</g>
</g>
</svg>
