<?xml version="1.0" encoding="utf-8"?>
<!-- Generator: Adobe Illustrator 22.1.0, SVG Export Plug-In . SVG Version: 6.00 Build 0)  -->
<svg version="1.1" id="Layer_1" xmlns="http://www.w3.org/2000/svg" xmlns:xlink="http://www.w3.org/1999/xlink" x="0px" y="0px"
	 width="30px" height="30px" viewBox="0 0 30 30" style="enable-background:new 0 0 30 30;" xml:space="preserve">
<style type="text/css">
	.st0{fill:#757679;}
</style>
<g>
	<path class="st0" d="M1,9.1c0.6,0,1-0.5,1-1V3.6l6.7,6.7c0.2,0.2,0.5,0.3,0.7,0.3c0.3,0,0.5-0.1,0.7-0.3c0.4-0.4,0.4-1.1,0-1.5
		L3.6,2.1H8c0.6,0,1-0.5,1-1S8.6,0,8,0H1C0.5,0,0,0.5,0,1v7C0,8.6,0.5,9.1,1,9.1z"/>
	<path class="st0" d="M29,20.9c-0.6,0-1,0.5-1,1v4.5L21,19.5c-0.4-0.4-1.1-0.4-1.5,0c-0.4,0.4-0.4,1.1,0,1.5l6.9,6.9H22
		c-0.6,0-1,0.5-1,1s0.5,1,1,1h7c0.6,0,1-0.5,1-1v-7C30,21.4,29.5,20.9,29,20.9z"/>
	<path class="st0" d="M9,19.5l-6.9,6.9V22c0-0.6-0.5-1-1-1s-1,0.5-1,1v7c0,0.6,0.5,1,1,1h7c0.6,0,1-0.5,1-1s-0.5-1-1-1H3.6l6.9-6.9
		c0.4-0.4,0.4-1.1,0-1.5C10.1,19.1,9.4,19.1,9,19.5z"/>
	<path class="st0" d="M29,0h-7c-0.6,0-1,0.5-1,1s0.5,1,1,1h4.5l-6.7,6.7c-0.4,0.4-0.4,1.1,0,1.5c0.2,0.2,0.5,0.3,0.7,0.3
		c0.3,0,0.5-0.1,0.7-0.3l6.7-6.7V8c0,0.6,0.5,1,1,1c0.6,0,1-0.5,1-1V1C30,0.5,29.5,0,29,0z"/>
</g>
</svg>
