<?xml version="1.0" encoding="utf-8"?>
<!-- Generator: Adobe Illustrator 22.1.0, SVG Export Plug-In . SVG Version: 6.00 Build 0)  -->
<svg version="1.1" id="Layer_1" xmlns="http://www.w3.org/2000/svg" xmlns:xlink="http://www.w3.org/1999/xlink" x="0px" y="0px"
	 width="30px" height="30px" viewBox="0 0 30 30" style="enable-background:new 0 0 30 30;" xml:space="preserve">
<style type="text/css">
	.st0{fill:#FFFFFF;}
</style>
<g>
	<g>
		<g>
			<g>
				<path class="st0" d="M23,6.9c-0.1-0.2-0.5-0.2-0.7-0.1l-4.6,3.7L11.8,8c-0.1-0.1-0.3,0-0.4,0.1L5,12.6c-0.2,0.1-0.3,0.4-0.1,0.6
					c0.1,0.1,0.2,0.2,0.4,0.2c0.1,0,0.2,0,0.3-0.1l6.1-4.4l5.9,2.5c0.1,0.1,0.3,0,0.5-0.1l4.8-3.8C23.1,7.4,23.1,7.1,23,6.9z"/>
			</g>
		</g>
	</g>
	<g>
		<g>
			<g>
				<path class="st0" d="M29.6,22.4h-2.1V9.3c0-0.3-0.2-0.5-0.5-0.5h-4.2c-0.3,0-0.5,0.2-0.5,0.5v13.1h-1.5v-8.6
					c0-0.3-0.2-0.5-0.5-0.5h-4.2c-0.3,0-0.5,0.2-0.5,0.5v8.6h-1.5v-9.3c0-0.3-0.2-0.5-0.5-0.5H9.7c-0.3,0-0.5,0.2-0.5,0.5v9.3H7.7
					v-6.6c0-0.3-0.2-0.5-0.5-0.5H3c-0.3,0-0.5,0.2-0.5,0.5v6.6H0.5c-0.3,0-0.5,0.2-0.5,0.5s0.2,0.5,0.5,0.5H3h4.2h2.5h4.2h2.4h4.2
					h2.4H27h2.5c0.3,0,0.5-0.2,0.5-0.5C30,22.6,29.8,22.4,29.6,22.4z M6.7,22.4H3.5v-6.1h3.3V22.4z M13.4,22.4h-3.3v-8.8h3.3V22.4z
					 M20,22.4h-3.3v-8.1H20V22.4z M26.6,22.4h-3.3V9.7h3.3V22.4z"/>
			</g>
		</g>
	</g>
</g>
</svg>
