<?xml version="1.0" encoding="utf-8"?>
<!-- Generator: Adobe Illustrator 22.1.0, SVG Export Plug-In . SVG Version: 6.00 Build 0)  -->
<svg version="1.1" id="Layer_1" xmlns="http://www.w3.org/2000/svg" xmlns:xlink="http://www.w3.org/1999/xlink" x="0px" y="0px"
	 width="30px" height="30px" viewBox="0 0 30 30" style="enable-background:new 0 0 30 30;" xml:space="preserve">
<style type="text/css">
	.st0{fill:#757679;}
</style>
<g>
	<path class="st0" d="M14.4,30v-2.9L13.6,27C8.2,26.5,3.7,22,3,16.3l-0.1-0.7H0v-1.3h2.9L3,13.6C3.5,8,8,3.5,13.6,3l0.7-0.1V0h1.3
		v2.9L16.4,3c5.5,0.5,10,5,10.6,10.6l0.1,0.7H30v1.3h-2.9L27,16.4c-0.5,5.5-5,10-10.6,10.6l-0.7,0.1V30H14.4z M15,4.2
		C8.9,4.2,4.2,8.9,4.2,15S8.9,25.8,15,25.8S25.8,21.1,25.8,15S21.1,4.2,15,4.2z M15,20c-2.7,0-5-2.2-5-5s2.2-5,5-5s5,2.2,5,5
		S17.7,20,15,20z"/>
</g>
</svg>
