<?xml version="1.0" encoding="utf-8"?>
<!-- Generator: Adobe Illustrator 22.1.0, SVG Export Plug-In . SVG Version: 6.00 Build 0)  -->
<svg version="1.1" id="Layer_1" xmlns="http://www.w3.org/2000/svg" xmlns:xlink="http://www.w3.org/1999/xlink" x="0px" y="0px"
	 width="30px" height="30px" viewBox="0 0 30 30" style="enable-background:new 0 0 30 30;" xml:space="preserve">
<style type="text/css">
	.st0{fill:#FFFFFF;}
</style>
<g>
	<g>
		<path class="st0" d="M15,9.9c2.7,0,4.9-2.2,4.9-4.9S17.7,0,15,0c-2.7,0-4.9,2.2-4.9,4.9S12.3,9.9,15,9.9z M15,1.1
			c2.1,0,3.9,1.7,3.9,3.9S17.1,8.8,15,8.8c-2.1,0-3.9-1.7-3.9-3.9C11.1,2.8,12.9,1.1,15,1.1z"/>
	</g>
	<g>
		<path class="st0" d="M24.9,19.5h-2.9c-0.2-4.9-3.4-8.9-7.1-8.9s-6.8,4.1-7.1,8.9H5.1v3.9h1.8l-1.2,1.2l4.8,4.8l1.2-1.2V30h6.8
			v-1.8l1.2,1.2l4.8-4.8l-1.2-1.2h1.8V19.5z M15,11.7c3.1,0,5.8,3.6,6,7.9H9C9.2,15.3,11.9,11.7,15,11.7z M18.4,20.6
			c-0.3,1.7-1.7,2.9-3.4,2.9s-3.1-1.2-3.4-2.9H18.4z M23.9,22.4h-3.3l2.3,2.3L19.6,28l-2.3-2.3v3.3h-4.7v-3.3L10.4,28l-3.3-3.3
			l2.3-2.3H6.1v-1.8h4.4c0.3,2.2,2.2,4,4.5,4c2.3,0,4.2-1.7,4.5-4h4.4V22.4z"/>
	</g>
</g>
</svg>
