<?xml version="1.0" encoding="utf-8"?>
<!-- Generator: Adobe Illustrator 22.1.0, SVG Export Plug-In . SVG Version: 6.00 Build 0)  -->
<svg version="1.1" id="Layer_1" xmlns="http://www.w3.org/2000/svg" xmlns:xlink="http://www.w3.org/1999/xlink" x="0px" y="0px"
	 width="30px" height="30px" viewBox="0 0 30 30" style="enable-background:new 0 0 30 30;" xml:space="preserve">
<style type="text/css">
	.st0{fill:#E94867;}
	.st1{fill:url(#SVGID_1_);}
</style>
<g>
	<path class="st0" d="M21.1,21.5c-0.3,0-0.5,0.2-0.6,0.4s0.2,0.5,0.4,0.6c5.3,0.6,8.1,2.3,8.1,3.3c0,1.4-5.3,3.3-14,3.3
		S1,27.1,1,25.8c0-1,2.8-2.6,8.1-3.3c0.3,0,0.5-0.3,0.4-0.6c0-0.3-0.3-0.5-0.6-0.4C3.7,22.1,0,23.9,0,25.8C0,27.9,5.2,30,15,30
		s15-2.1,15-4.3C30,23.9,26.3,22.1,21.1,21.5z"/>
	<linearGradient id="SVGID_1_" gradientUnits="userSpaceOnUse" x1="5.323" y1="13.6892" x2="24.4981" y2="13.6892">
		<stop  offset="0" style="stop-color:#4E60BC"/>
		<stop  offset="1" style="stop-color:#5157B5"/>
	</linearGradient>
	<path class="st1" d="M14.9,27.4l7.7-11.1c2.9-3.8,2.5-10.1-0.9-13.5C19.9,1,17.5,0,14.9,0s-5,1-6.8,2.8c-3.4,3.4-3.8,9.7-0.9,13.5
		L14.9,27.4z"/>
	<circle class="st0" cx="15" cy="9.5" r="6.7"/>
</g>
</svg>
