<?xml version="1.0" encoding="utf-8"?>
<!-- Generator: Adobe Illustrator 22.1.0, SVG Export Plug-In . SVG Version: 6.00 Build 0)  -->
<svg version="1.1" id="Layer_1" xmlns="http://www.w3.org/2000/svg" xmlns:xlink="http://www.w3.org/1999/xlink" x="0px" y="0px"
	 width="30px" height="30px" viewBox="0 0 30 30" style="enable-background:new 0 0 30 30;" xml:space="preserve">
<style type="text/css">
	.st0{fill:#757679;}
</style>
<g>
	<path class="st0" d="M22.2,2.3c-0.2-1.2-1.3-2.1-2.5-2.1c-0.3,0-0.5,0.2-0.5,0.5c0,0.3,0.2,0.5,0.5,0.5c0.9,0,1.6,0.7,1.6,1.6
		s-0.7,1.6-1.6,1.6c-0.3,0-0.5,0.2-0.5,0.5c0,0.3,0.2,0.5,0.5,0.5c1.3,0,2.3-0.9,2.5-2.1H29V8H1V3.4h8.8c0.3,0,0.5-0.2,0.5-0.5
		c0-0.3-0.2-0.5-0.5-0.5H8.9c0.2-0.6,0.8-1,1.5-1c0.9,0,1.6,0.7,1.6,1.6s-0.7,1.6-1.6,1.6c-0.3,0-0.5,0.2-0.5,0.5
		c0,0.3,0.2,0.5,0.5,0.5c1.4,0,2.6-1.2,2.6-2.6s-1.2-2.6-2.6-2.6c-1.2,0-2.3,0.9-2.5,2.1H0v27.4h30V2.3H22.2z M29,28.7H1V9.1H29
		V28.7z M29,28.7"/>
	<path class="st0" d="M13.4,1.3C14.3,1.3,15,2,15,2.8s-0.7,1.6-1.6,1.6c-0.3,0-0.5,0.2-0.5,0.5c0,0.3,0.2,0.5,0.5,0.5
		c1.4,0,2.6-1.2,2.6-2.6s-1.2-2.6-2.6-2.6c-0.3,0-0.5,0.2-0.5,0.5C12.9,1.1,13.2,1.3,13.4,1.3L13.4,1.3z M13.4,1.3"/>
	<path class="st0" d="M16.6,1.3c0.9,0,1.6,0.7,1.6,1.6s-0.7,1.6-1.6,1.6c-0.3,0-0.5,0.2-0.5,0.5c0,0.3,0.2,0.5,0.5,0.5
		c1.4,0,2.6-1.2,2.6-2.6S18,0.3,16.6,0.3c-0.3,0-0.5,0.2-0.5,0.5C16,1.1,16.3,1.3,16.6,1.3L16.6,1.3z M16.6,1.3"/>
	<path class="st0" d="M11.9,12.7c0,0.3-0.2,0.5-0.5,0.5c-0.3,0-0.5-0.2-0.5-0.5c0-0.3,0.2-0.5,0.5-0.5
		C11.7,12.2,11.9,12.4,11.9,12.7L11.9,12.7z M11.9,12.7"/>
	<path class="st0" d="M15.5,12.7c0,0.3-0.2,0.5-0.5,0.5c-0.3,0-0.5-0.2-0.5-0.5c0-0.3,0.2-0.5,0.5-0.5
		C15.3,12.2,15.5,12.4,15.5,12.7L15.5,12.7z M15.5,12.7"/>
	<path class="st0" d="M19.1,12.7c0,0.3-0.2,0.5-0.5,0.5c-0.3,0-0.5-0.2-0.5-0.5c0-0.3,0.2-0.5,0.5-0.5
		C18.9,12.2,19.1,12.4,19.1,12.7L19.1,12.7z M19.1,12.7"/>
	<path class="st0" d="M22.8,12.7c0,0.3-0.2,0.5-0.5,0.5c-0.3,0-0.5-0.2-0.5-0.5c0-0.3,0.2-0.5,0.5-0.5
		C22.5,12.2,22.8,12.4,22.8,12.7L22.8,12.7z M22.8,12.7"/>
	<path class="st0" d="M26.4,12.7c0,0.3-0.2,0.5-0.5,0.5c-0.3,0-0.5-0.2-0.5-0.5c0-0.3,0.2-0.5,0.5-0.5
		C26.1,12.2,26.4,12.4,26.4,12.7L26.4,12.7z M26.4,12.7"/>
	<path class="st0" d="M4.7,16.8c0,0.3-0.2,0.5-0.5,0.5c-0.3,0-0.5-0.2-0.5-0.5c0-0.3,0.2-0.5,0.5-0.5C4.4,16.3,4.7,16.5,4.7,16.8
		L4.7,16.8z M4.7,16.8"/>
	<path class="st0" d="M8.3,16.8c0,0.3-0.2,0.5-0.5,0.5c-0.3,0-0.5-0.2-0.5-0.5c0-0.3,0.2-0.5,0.5-0.5C8,16.3,8.3,16.5,8.3,16.8
		L8.3,16.8z M8.3,16.8"/>
	<path class="st0" d="M11.9,16.8c0,0.3-0.2,0.5-0.5,0.5c-0.3,0-0.5-0.2-0.5-0.5c0-0.3,0.2-0.5,0.5-0.5
		C11.7,16.3,11.9,16.5,11.9,16.8L11.9,16.8z M11.9,16.8"/>
	<path class="st0" d="M15.5,16.8c0,0.3-0.2,0.5-0.5,0.5c-0.3,0-0.5-0.2-0.5-0.5c0-0.3,0.2-0.5,0.5-0.5
		C15.3,16.3,15.5,16.5,15.5,16.8L15.5,16.8z M15.5,16.8"/>
	<path class="st0" d="M19.1,16.8c0,0.3-0.2,0.5-0.5,0.5c-0.3,0-0.5-0.2-0.5-0.5c0-0.3,0.2-0.5,0.5-0.5
		C18.9,16.3,19.1,16.5,19.1,16.8L19.1,16.8z M19.1,16.8"/>
	<path class="st0" d="M22.8,16.8c0,0.3-0.2,0.5-0.5,0.5c-0.3,0-0.5-0.2-0.5-0.5c0-0.3,0.2-0.5,0.5-0.5
		C22.5,16.3,22.8,16.5,22.8,16.8L22.8,16.8z M22.8,16.8"/>
	<path class="st0" d="M26.4,16.8c0,0.3-0.2,0.5-0.5,0.5c-0.3,0-0.5-0.2-0.5-0.5c0-0.3,0.2-0.5,0.5-0.5
		C26.1,16.3,26.4,16.5,26.4,16.8L26.4,16.8z M26.4,16.8"/>
	<path class="st0" d="M4.7,20.4c0,0.3-0.2,0.5-0.5,0.5c-0.3,0-0.5-0.2-0.5-0.5c0-0.3,0.2-0.5,0.5-0.5C4.4,19.9,4.7,20.1,4.7,20.4
		L4.7,20.4z M4.7,20.4"/>
	<path class="st0" d="M8.3,20.4c0,0.3-0.2,0.5-0.5,0.5c-0.3,0-0.5-0.2-0.5-0.5c0-0.3,0.2-0.5,0.5-0.5C8,19.9,8.3,20.1,8.3,20.4
		L8.3,20.4z M8.3,20.4"/>
	<path class="st0" d="M11.9,20.4c0,0.3-0.2,0.5-0.5,0.5c-0.3,0-0.5-0.2-0.5-0.5c0-0.3,0.2-0.5,0.5-0.5
		C11.7,19.9,11.9,20.1,11.9,20.4L11.9,20.4z M11.9,20.4"/>
	<path class="st0" d="M15.5,20.4c0,0.3-0.2,0.5-0.5,0.5c-0.3,0-0.5-0.2-0.5-0.5c0-0.3,0.2-0.5,0.5-0.5
		C15.3,19.9,15.5,20.1,15.5,20.4L15.5,20.4z M15.5,20.4"/>
	<path class="st0" d="M19.1,20.4c0,0.3-0.2,0.5-0.5,0.5c-0.3,0-0.5-0.2-0.5-0.5c0-0.3,0.2-0.5,0.5-0.5
		C18.9,19.9,19.1,20.1,19.1,20.4L19.1,20.4z M19.1,20.4"/>
	<path class="st0" d="M22.8,20.4c0,0.3-0.2,0.5-0.5,0.5c-0.3,0-0.5-0.2-0.5-0.5c0-0.3,0.2-0.5,0.5-0.5
		C22.5,19.9,22.8,20.1,22.8,20.4L22.8,20.4z M22.8,20.4"/>
	<path class="st0" d="M26.4,20.4c0,0.3-0.2,0.5-0.5,0.5c-0.3,0-0.5-0.2-0.5-0.5c0-0.3,0.2-0.5,0.5-0.5
		C26.1,19.9,26.4,20.1,26.4,20.4L26.4,20.4z M26.4,20.4"/>
	<path class="st0" d="M4.7,24.6c0,0.3-0.2,0.5-0.5,0.5c-0.3,0-0.5-0.2-0.5-0.5c0-0.3,0.2-0.5,0.5-0.5C4.4,24.1,4.7,24.3,4.7,24.6
		L4.7,24.6z M4.7,24.6"/>
	<path class="st0" d="M8.3,24.6c0,0.3-0.2,0.5-0.5,0.5c-0.3,0-0.5-0.2-0.5-0.5c0-0.3,0.2-0.5,0.5-0.5C8,24.1,8.3,24.3,8.3,24.6
		L8.3,24.6z M8.3,24.6"/>
	<path class="st0" d="M11.9,24.6c0,0.3-0.2,0.5-0.5,0.5c-0.3,0-0.5-0.2-0.5-0.5c0-0.3,0.2-0.5,0.5-0.5
		C11.7,24.1,11.9,24.3,11.9,24.6L11.9,24.6z M11.9,24.6"/>
	<path class="st0" d="M15.5,24.6c0,0.3-0.2,0.5-0.5,0.5c-0.3,0-0.5-0.2-0.5-0.5c0-0.3,0.2-0.5,0.5-0.5
		C15.3,24.1,15.5,24.3,15.5,24.6L15.5,24.6z M15.5,24.6"/>
	<path class="st0" d="M19.1,24.6c0,0.3-0.2,0.5-0.5,0.5c-0.3,0-0.5-0.2-0.5-0.5c0-0.3,0.2-0.5,0.5-0.5
		C18.9,24.1,19.1,24.3,19.1,24.6L19.1,24.6z M19.1,24.6"/>
</g>
</svg>
