<?xml version="1.0" encoding="utf-8"?>
<!-- Generator: Adobe Illustrator 22.1.0, SVG Export Plug-In . SVG Version: 6.00 Build 0)  -->
<svg version="1.1" id="Layer_1" xmlns="http://www.w3.org/2000/svg" xmlns:xlink="http://www.w3.org/1999/xlink" x="0px" y="0px"
	 width="30px" height="30px" viewBox="0 0 30 30" style="enable-background:new 0 0 30 30;" xml:space="preserve">
<style type="text/css">
	.st0{fill:#757679;}
</style>
<g>
	<path class="st0" d="M5.8,11c-0.1,0-0.1,0-0.2-0.1c0-0.1-0.1-0.1,0-0.2l1.8-5.1C7.4,5.4,7.7,5.2,8,5.2h14c0.3,0,0.6,0.2,0.7,0.5
		l1.8,5.1c0,0.1,0,0.1,0,0.2c0,0.1-0.1,0.1-0.2,0.1H5.8z M7.8,5.8l-1.7,4.8h17.8l-1.7-4.9l-0.2,0H7.9L7.8,5.8z"/>
	<path class="st0" d="M23.9,20.4c-1.5,0-2.7-0.7-2.7-1.7c0-1,1.2-1.7,2.7-1.7c1.5,0,2.7,0.7,2.7,1.7C26.6,19.6,25.4,20.4,23.9,20.4z
		 M23.9,17.4c-1.2,0-2.2,0.6-2.2,1.2s1,1.2,2.2,1.2s2.2-0.6,2.2-1.2S25.1,17.4,23.9,17.4z"/>
	<path class="st0" d="M6.1,20.4c-1.5,0-2.7-0.7-2.7-1.7c0-1,1.2-1.7,2.7-1.7s2.7,0.7,2.7,1.7C8.8,19.6,7.6,20.4,6.1,20.4z M6.1,17.4
		c-1.2,0-2.2,0.6-2.2,1.2s1,1.2,2.2,1.2s2.2-0.6,2.2-1.2S7.3,17.4,6.1,17.4z"/>
	<path class="st0" d="M24.4,26.3c-0.4,0-0.7-0.3-0.7-0.7v-1.2H6.4v1.2c0,0.4-0.3,0.7-0.7,0.7h-3C2.3,26.3,2,26,2,25.6v-1.5L2,24
		l-0.1-0.1C1.3,23.5,1,22.8,1,22.1v-5.8c0-0.5,0.1-0.9,0.4-1.3l1.8-2.6h-3c-0.1,0-0.2-0.1-0.2-0.2v-2c0-0.1,0.1-0.2,0.2-0.2h2.5
		c0.1,0,0.2,0.1,0.2,0.2l0.5,2l2.5-7.1C6.3,4.3,7.1,3.7,8,3.7h14c0.9,0,1.8,0.6,2.1,1.5l2.5,7.1l0.5-2c0-0.1,0.1-0.2,0.2-0.2h2.5
		c0.1,0,0.2,0.1,0.2,0.2v2c0,0.1-0.1,0.2-0.2,0.2h-3l1.8,2.6c0.3,0.4,0.4,0.8,0.4,1.3v5.8c0,0.7-0.3,1.4-0.9,1.8L28,24l0,0.1l0,1.5
		c0,0.4-0.3,0.7-0.7,0.7H24.4z M24.1,25.8l0.3,0h3.2l0-0.3v-1.2h-3.5V25.8z M2.4,25.8l0.3,0h3.2l0-0.3v-1.2H2.4V25.8z M1.5,22.7
		c0.2,0.7,0.9,1.2,1.7,1.2h23.6c0.8,0,1.4-0.5,1.7-1.2l0.1-0.3H1.4L1.5,22.7z M17.5,16c1.2,0,2.2,1,2.2,2.2v3.7h8.9v-5.5
		c0-0.4-0.1-0.7-0.3-1l-2-2.8h-3.3c-0.1,0-0.2-0.1-0.2-0.2c0-0.1,0.1-0.2,0.2-0.2H26l-2.4-6.7c-0.2-0.7-0.9-1.2-1.6-1.2H8
		c-0.7,0-1.4,0.5-1.6,1.2L4,12.1h16.9c0.1,0,0.2,0.1,0.2,0.2c0,0.1-0.1,0.2-0.2,0.2H3.8l-2,2.8c-0.2,0.3-0.3,0.6-0.3,1v5.5h8.9v-3.7
		c0-1.2,1-2.2,2.2-2.2H17.5z M10.8,21.9h8.4v-1.5h-8.4V21.9z M10.8,19.9h8.4v-1.5h-8.4V19.9z M12.5,16.5c-0.8,0-1.4,0.5-1.7,1.2
		L10.8,18h8.4l-0.1-0.3c-0.2-0.7-0.9-1.2-1.7-1.2H12.5z M27.1,12.1h2.4v-1.5h-2.1L27.1,12.1z M0.5,12.1h2.4l-0.4-1.5H0.5V12.1z"/>
	<path class="st0" d="M4.7,16c-0.1,0-0.2-0.1-0.2-0.2s0.1-0.2,0.2-0.2h3c0.1,0,0.2,0.1,0.2,0.2S7.7,16,7.6,16H4.7z"/>
	<path class="st0" d="M22.4,16c-0.1,0-0.2-0.1-0.2-0.2s0.1-0.2,0.2-0.2h3c0.1,0,0.2,0.1,0.2,0.2S25.5,16,25.3,16H22.4z"/>
</g>
</svg>
