<?xml version="1.0" encoding="utf-8"?>
<!-- Generator: Adobe Illustrator 22.1.0, SVG Export Plug-In . SVG Version: 6.00 Build 0)  -->
<svg version="1.1" id="Layer_1" xmlns="http://www.w3.org/2000/svg" xmlns:xlink="http://www.w3.org/1999/xlink" x="0px" y="0px"
	 width="30px" height="30px" viewBox="0 0 30 30" style="enable-background:new 0 0 30 30;" xml:space="preserve">
<style type="text/css">
	.st0{fill:#FFFFFF;}
</style>
<g>
	<g>
		<g>
			<g>
				<path class="st0" d="M24.4,0H5.6C4,0,2.7,1.3,2.7,2.9v24.1C2.7,28.7,4,30,5.6,30h18.7c1.6,0,2.9-1.3,2.9-2.9V2.9
					C27.3,1.3,26,0,24.4,0z M26.1,27.1c0,1-0.8,1.8-1.8,1.8H5.6c-1,0-1.8-0.8-1.8-1.8V2.9c0-1,0.8-1.8,1.8-1.8h18.7
					c1,0,1.8,0.8,1.8,1.8V27.1z"/>
			</g>
		</g>
	</g>
	<g>
		<g>
			<g>
				<path class="st0" d="M15,6.2h-1.2c-0.3,0-0.6,0.3-0.6,0.6v2.3v1.5c0,0.3,0.3,0.6,0.6,0.6c0.3,0,0.6-0.3,0.6-0.6V9.7H15
					c1,0,1.7-0.8,1.7-1.7S16,6.2,15,6.2z M15,8.5h-0.6V7.4H15c0.3,0,0.6,0.3,0.6,0.6C15.6,8.3,15.3,8.5,15,8.5z"/>
			</g>
		</g>
	</g>
	<g>
		<g>
			<g>
				<path class="st0" d="M15,3.1c-3.1,0-5.7,2.5-5.7,5.7c0,3.1,2.5,5.7,5.7,5.7s5.7-2.5,5.7-5.7S18.1,3.1,15,3.1z M15,13.2
					c-2.5,0-4.5-2-4.5-4.5s2-4.5,4.5-4.5s4.5,2,4.5,4.5S17.5,13.2,15,13.2z"/>
			</g>
		</g>
	</g>
	<g>
		<g>
			<g>
				<path class="st0" d="M19.7,17.6h-9.4c-1.6,0-2.9,1.3-2.9,2.9c0,1.4,1,2.6,2.3,2.9v3.8c0,0.2,0.1,0.4,0.3,0.5
					c0.2,0.1,0.4,0.1,0.6,0l0.9-0.5l0.9,0.5c0.2,0.1,0.4,0.1,0.5,0l0.9-0.5l0.9,0.5c0.2,0.1,0.4,0.1,0.5,0l0.9-0.5l0.9,0.5
					c0.2,0.1,0.4,0.1,0.5,0l0.9-0.5l0.9,0.5c0.1,0,0.2,0.1,0.3,0.1c0.1,0,0.2,0,0.3-0.1c0.2-0.1,0.3-0.3,0.3-0.5v-3.8
					c1.3-0.3,2.3-1.5,2.3-2.9C22.6,18.9,21.3,17.6,19.7,17.6z M19.1,22.9v3.4l-0.3-0.2c-0.2-0.1-0.4-0.1-0.5,0l-0.9,0.5l-0.9-0.5
					c-0.1,0-0.2-0.1-0.3-0.1s-0.2,0-0.3,0.1L15,26.5l-0.9-0.5c-0.2-0.1-0.4-0.1-0.5,0l-0.9,0.5l-0.9-0.5c-0.2-0.1-0.4-0.1-0.5,0
					l-0.3,0.2v-3.4v-1.8h8.2V22.9z M20.3,22.2v-1.7c0-0.3-0.3-0.6-0.6-0.6h-9.4c-0.1,0-0.2,0-0.3,0.1c-0.2,0.1-0.3,0.3-0.3,0.5v1.7
					C9,22,8.6,21.3,8.6,20.5c0-1,0.8-1.8,1.8-1.8h9.4c1,0,1.8,0.8,1.8,1.8C21.4,21.3,21,22,20.3,22.2z"/>
			</g>
		</g>
	</g>
	<g>
		<g>
			<g>
				<path class="st0" d="M17.3,23.3h-2.8c-0.3,0-0.6,0.3-0.6,0.6c0,0.3,0.3,0.6,0.6,0.6h2.8c0.3,0,0.6-0.3,0.6-0.6
					C17.9,23.5,17.6,23.3,17.3,23.3z"/>
			</g>
		</g>
	</g>
	<g>
		<g>
			<g>
				<path class="st0" d="M12.7,23.3L12.7,23.3c-0.3,0-0.6,0.3-0.6,0.6s0.3,0.6,0.6,0.6h0c0.3,0,0.6-0.3,0.6-0.6S13,23.3,12.7,23.3z"
					/>
			</g>
		</g>
	</g>
</g>
</svg>
