<?xml version="1.0" encoding="utf-8"?>
<!-- Generator: Adobe Illustrator 22.1.0, SVG Export Plug-In . SVG Version: 6.00 Build 0)  -->
<svg version="1.1" id="Layer_1" xmlns="http://www.w3.org/2000/svg" xmlns:xlink="http://www.w3.org/1999/xlink" x="0px" y="0px"
	 width="30px" height="30px" viewBox="0 0 30 30" style="enable-background:new 0 0 30 30;" xml:space="preserve">
<style type="text/css">
	.st0{fill:url(#SVGID_1_);}
	.st1{fill:url(#SVGID_2_);}
	.st2{fill:url(#SVGID_3_);}
	.st3{fill:url(#SVGID_4_);}
	.st4{fill:url(#SVGID_5_);}
	.st5{fill:url(#SVGID_6_);}
	.st6{fill:url(#SVGID_7_);}
	.st7{fill:url(#SVGID_8_);}
	.st8{fill:url(#SVGID_9_);}
	.st9{fill:url(#SVGID_10_);}
	.st10{fill:url(#SVGID_11_);}
	.st11{fill:url(#SVGID_12_);}
	.st12{fill:url(#SVGID_13_);}
	.st13{fill:url(#SVGID_14_);}
	.st14{fill:url(#SVGID_15_);}
	.st15{fill:url(#SVGID_16_);}
	.st16{fill:url(#SVGID_17_);}
	.st17{fill:url(#SVGID_18_);}
	.st18{fill:url(#SVGID_19_);}
	.st19{fill:url(#SVGID_20_);}
	.st20{fill:url(#SVGID_21_);}
	.st21{fill:url(#SVGID_22_);}
	.st22{fill:url(#SVGID_23_);}
	.st23{fill:url(#SVGID_24_);}
	.st24{fill:url(#SVGID_25_);}
	.st25{fill:url(#SVGID_26_);}
	.st26{fill:url(#SVGID_27_);}
	.st27{fill:url(#SVGID_28_);}
</style>
<g>
	<linearGradient id="SVGID_1_" gradientUnits="userSpaceOnUse" x1="0" y1="15" x2="30" y2="15">
		<stop  offset="0" style="stop-color:#7BCFD1"/>
		<stop  offset="1" style="stop-color:#67CBB5"/>
	</linearGradient>
	<path class="st0" d="M28.5,20V2.5C28.5,1.2,27.4,0,26,0H4C2.6,0,1.5,1.2,1.5,2.5V20H0v2.5C0,23.9,1.1,25,2.5,25h6V30l2-1.3l1.5,1
		l1.5-1l1.5,1l1.5-1l1.5,1l1.4-1l2.1,1.3V25h6c1.4,0,2.5-1.1,2.5-2.5V20H28.5z M2.5,2.5C2.5,1.7,3.2,1,4,1h22c0.8,0,1.5,0.7,1.5,1.5
		V20h-6v-1h5V2h-23v17h5v1h-6V2.5z M21.5,8.5c1-0.3,1.6-1.2,1.5-2.2c-0.1-1-1-1.7-2-1.7H9c-1,0-1.9,0.7-2,1.7
		c-0.1,1,0.5,1.9,1.5,2.2V18h-4V3h21v15h-4V8.5z M8.5,6v1.4C8.1,7.2,7.9,6.7,8,6.3s0.5-0.7,1-0.7h12c0.5,0,0.8,0.3,1,0.7
		s-0.1,0.9-0.5,1.1V6H8.5z M2.5,24C1.7,24,1,23.4,1,22.5V21h7.5v3H2.5z M20.5,28.1l-1.1-0.7l-1.4,1l-1.5-1l-1.5,1l-1.5-1l-1.5,1
		l-1.5-1l-1.1,0.7V7h11V28.1z M29,22.5c0,0.8-0.7,1.5-1.5,1.5h-6v-3H29V22.5z"/>
	<linearGradient id="SVGID_2_" gradientUnits="userSpaceOnUse" x1="14.5" y1="9.0408" x2="15.5" y2="9.0408">
		<stop  offset="0" style="stop-color:#7BCFD1"/>
		<stop  offset="1" style="stop-color:#67CBB5"/>
	</linearGradient>
	<path class="st1" d="M14.5,8.5h1v1h-1V8.5z"/>
	<linearGradient id="SVGID_3_" gradientUnits="userSpaceOnUse" x1="16.5" y1="9.0408" x2="19.5" y2="9.0408">
		<stop  offset="0" style="stop-color:#7BCFD1"/>
		<stop  offset="1" style="stop-color:#67CBB5"/>
	</linearGradient>
	<path class="st2" d="M16.5,8.5h3v1h-3V8.5z"/>
	<linearGradient id="SVGID_4_" gradientUnits="userSpaceOnUse" x1="14.5" y1="10.5408" x2="15.5" y2="10.5408">
		<stop  offset="0" style="stop-color:#7BCFD1"/>
		<stop  offset="1" style="stop-color:#67CBB5"/>
	</linearGradient>
	<path class="st3" d="M14.5,10h1v1h-1V10z"/>
	<linearGradient id="SVGID_5_" gradientUnits="userSpaceOnUse" x1="16.5" y1="10.5408" x2="19.5" y2="10.5408">
		<stop  offset="0" style="stop-color:#7BCFD1"/>
		<stop  offset="1" style="stop-color:#67CBB5"/>
	</linearGradient>
	<path class="st4" d="M16.5,10h3v1h-3V10z"/>
	<linearGradient id="SVGID_6_" gradientUnits="userSpaceOnUse" x1="14.5" y1="12.0408" x2="15.5" y2="12.0408">
		<stop  offset="0" style="stop-color:#7BCFD1"/>
		<stop  offset="1" style="stop-color:#67CBB5"/>
	</linearGradient>
	<path class="st5" d="M14.5,11.5h1v1h-1V11.5z"/>
	<linearGradient id="SVGID_7_" gradientUnits="userSpaceOnUse" x1="16.5" y1="12.0408" x2="19.5" y2="12.0408">
		<stop  offset="0" style="stop-color:#7BCFD1"/>
		<stop  offset="1" style="stop-color:#67CBB5"/>
	</linearGradient>
	<path class="st6" d="M16.5,11.5h3v1h-3V11.5z"/>
	<linearGradient id="SVGID_8_" gradientUnits="userSpaceOnUse" x1="10.5" y1="9.0408" x2="13.5" y2="9.0408">
		<stop  offset="0" style="stop-color:#7BCFD1"/>
		<stop  offset="1" style="stop-color:#67CBB5"/>
	</linearGradient>
	<path class="st7" d="M10.5,8.5h3v1h-3V8.5z"/>
	<linearGradient id="SVGID_9_" gradientUnits="userSpaceOnUse" x1="10.5" y1="10.5408" x2="13.5" y2="10.5408">
		<stop  offset="0" style="stop-color:#7BCFD1"/>
		<stop  offset="1" style="stop-color:#67CBB5"/>
	</linearGradient>
	<path class="st8" d="M10.5,10h3v1h-3V10z"/>
	<linearGradient id="SVGID_10_" gradientUnits="userSpaceOnUse" x1="10.5" y1="12.0408" x2="13.5" y2="12.0408">
		<stop  offset="0" style="stop-color:#7BCFD1"/>
		<stop  offset="1" style="stop-color:#67CBB5"/>
	</linearGradient>
	<path class="st9" d="M10.5,11.5h3v1h-3V11.5z"/>
	<linearGradient id="SVGID_11_" gradientUnits="userSpaceOnUse" x1="10.5" y1="15.0408" x2="11.5" y2="15.0408">
		<stop  offset="0" style="stop-color:#7BCFD1"/>
		<stop  offset="1" style="stop-color:#67CBB5"/>
	</linearGradient>
	<path class="st10" d="M10.5,14.5h1v1h-1V14.5z"/>
	<linearGradient id="SVGID_12_" gradientUnits="userSpaceOnUse" x1="12.5" y1="15.0408" x2="13.5" y2="15.0408">
		<stop  offset="0" style="stop-color:#7BCFD1"/>
		<stop  offset="1" style="stop-color:#67CBB5"/>
	</linearGradient>
	<path class="st11" d="M12.5,14.5h1v1h-1V14.5z"/>
	<linearGradient id="SVGID_13_" gradientUnits="userSpaceOnUse" x1="14.5" y1="15.0408" x2="15.5" y2="15.0408">
		<stop  offset="0" style="stop-color:#7BCFD1"/>
		<stop  offset="1" style="stop-color:#67CBB5"/>
	</linearGradient>
	<path class="st12" d="M14.5,14.5h1v1h-1V14.5z"/>
	<linearGradient id="SVGID_14_" gradientUnits="userSpaceOnUse" x1="16.5" y1="15.0408" x2="17.5" y2="15.0408">
		<stop  offset="0" style="stop-color:#7BCFD1"/>
		<stop  offset="1" style="stop-color:#67CBB5"/>
	</linearGradient>
	<path class="st13" d="M16.5,14.5h1v1h-1V14.5z"/>
	<linearGradient id="SVGID_15_" gradientUnits="userSpaceOnUse" x1="18.5" y1="15.0408" x2="19.5" y2="15.0408">
		<stop  offset="0" style="stop-color:#7BCFD1"/>
		<stop  offset="1" style="stop-color:#67CBB5"/>
	</linearGradient>
	<path class="st14" d="M18.5,14.5h1v1h-1V14.5z"/>
	<linearGradient id="SVGID_16_" gradientUnits="userSpaceOnUse" x1="10.5" y1="26.0408" x2="11.5" y2="26.0408">
		<stop  offset="0" style="stop-color:#7BCFD1"/>
		<stop  offset="1" style="stop-color:#67CBB5"/>
	</linearGradient>
	<path class="st15" d="M10.5,25.5h1v1h-1V25.5z"/>
	<linearGradient id="SVGID_17_" gradientUnits="userSpaceOnUse" x1="12.5" y1="26.0408" x2="13.5" y2="26.0408">
		<stop  offset="0" style="stop-color:#7BCFD1"/>
		<stop  offset="1" style="stop-color:#67CBB5"/>
	</linearGradient>
	<path class="st16" d="M12.5,25.5h1v1h-1V25.5z"/>
	<linearGradient id="SVGID_18_" gradientUnits="userSpaceOnUse" x1="14.5" y1="26.0408" x2="15.5" y2="26.0408">
		<stop  offset="0" style="stop-color:#7BCFD1"/>
		<stop  offset="1" style="stop-color:#67CBB5"/>
	</linearGradient>
	<path class="st17" d="M14.5,25.5h1v1h-1V25.5z"/>
	<linearGradient id="SVGID_19_" gradientUnits="userSpaceOnUse" x1="16.5" y1="26.0408" x2="17.5" y2="26.0408">
		<stop  offset="0" style="stop-color:#7BCFD1"/>
		<stop  offset="1" style="stop-color:#67CBB5"/>
	</linearGradient>
	<path class="st18" d="M16.5,25.5h1v1h-1V25.5z"/>
	<linearGradient id="SVGID_20_" gradientUnits="userSpaceOnUse" x1="18.5" y1="26.0408" x2="19.5" y2="26.0408">
		<stop  offset="0" style="stop-color:#7BCFD1"/>
		<stop  offset="1" style="stop-color:#67CBB5"/>
	</linearGradient>
	<path class="st19" d="M18.5,25.5h1v1h-1V25.5z"/>
	<linearGradient id="SVGID_21_" gradientUnits="userSpaceOnUse" x1="18" y1="18.5408" x2="19.5" y2="18.5408">
		<stop  offset="0" style="stop-color:#7BCFD1"/>
		<stop  offset="1" style="stop-color:#67CBB5"/>
	</linearGradient>
	<path class="st20" d="M18,18h1.5v1H18V18z"/>
	<linearGradient id="SVGID_22_" gradientUnits="userSpaceOnUse" x1="18" y1="20.0408" x2="19.5" y2="20.0408">
		<stop  offset="0" style="stop-color:#7BCFD1"/>
		<stop  offset="1" style="stop-color:#67CBB5"/>
	</linearGradient>
	<path class="st21" d="M18,19.5h1.5v1H18V19.5z"/>
	<linearGradient id="SVGID_23_" gradientUnits="userSpaceOnUse" x1="18" y1="21.5408" x2="19.5" y2="21.5408">
		<stop  offset="0" style="stop-color:#7BCFD1"/>
		<stop  offset="1" style="stop-color:#67CBB5"/>
	</linearGradient>
	<path class="st22" d="M18,21h1.5v1H18V21z"/>
	<linearGradient id="SVGID_24_" gradientUnits="userSpaceOnUse" x1="18" y1="23.0408" x2="19.5" y2="23.0408">
		<stop  offset="0" style="stop-color:#7BCFD1"/>
		<stop  offset="1" style="stop-color:#67CBB5"/>
	</linearGradient>
	<path class="st23" d="M18,22.5h1.5v1H18V22.5z"/>
	<linearGradient id="SVGID_25_" gradientUnits="userSpaceOnUse" x1="10.5" y1="18.5408" x2="16.5" y2="18.5408">
		<stop  offset="0" style="stop-color:#7BCFD1"/>
		<stop  offset="1" style="stop-color:#67CBB5"/>
	</linearGradient>
	<path class="st24" d="M10.5,18h6v1h-6V18z"/>
	<linearGradient id="SVGID_26_" gradientUnits="userSpaceOnUse" x1="10.5" y1="20.0408" x2="14.5" y2="20.0408">
		<stop  offset="0" style="stop-color:#7BCFD1"/>
		<stop  offset="1" style="stop-color:#67CBB5"/>
	</linearGradient>
	<path class="st25" d="M10.5,19.5h4v1h-4V19.5z"/>
	<linearGradient id="SVGID_27_" gradientUnits="userSpaceOnUse" x1="10.5" y1="21.5408" x2="13" y2="21.5408">
		<stop  offset="0" style="stop-color:#7BCFD1"/>
		<stop  offset="1" style="stop-color:#67CBB5"/>
	</linearGradient>
	<path class="st26" d="M10.5,21H13v1h-2.5V21z"/>
	<linearGradient id="SVGID_28_" gradientUnits="userSpaceOnUse" x1="10.5" y1="23.0408" x2="14.5" y2="23.0408">
		<stop  offset="0" style="stop-color:#7BCFD1"/>
		<stop  offset="1" style="stop-color:#67CBB5"/>
	</linearGradient>
	<path class="st27" d="M10.5,22.5h4v1h-4V22.5z"/>
</g>
</svg>
