<?xml version="1.0" encoding="utf-8"?>
<!-- Generator: Adobe Illustrator 22.1.0, SVG Export Plug-In . SVG Version: 6.00 Build 0)  -->
<svg version="1.1" id="Layer_1" xmlns="http://www.w3.org/2000/svg" xmlns:xlink="http://www.w3.org/1999/xlink" x="0px" y="0px"
	 width="30px" height="30px" viewBox="0 0 30 30" style="enable-background:new 0 0 30 30;" xml:space="preserve">
<style type="text/css">
	.st0{fill:#757679;}
</style>
<g id="Notification_1_">
	<g>
		<path class="st0" d="M23.5,15.7v-4.5c0-3.4-2.3-5.7-4.3-6.6c-0.6-0.3-1.2-0.5-1.7-0.6V3.8c0-1.4-1.1-2.5-2.5-2.5
			c-1.4,0-2.5,1.1-2.5,2.5v0.3c-0.5,0.1-1.1,0.3-1.6,0.6c-2.2,1-4.4,3.4-4.4,6.6v4.5c0,3.2-1.1,5.9-3.4,8.1C3,24,3,24.2,3,24.4
			c0.1,0.2,0.2,0.3,0.4,0.3l4.7,0.8c0.9,0.2,1.7,0.3,2.5,0.4c0.9,1.7,2.6,2.8,4.5,2.8c1.9,0,3.6-1.1,4.5-2.8
			c0.8-0.1,1.6-0.2,2.5-0.4l4.7-0.8c0.2,0,0.3-0.2,0.4-0.3c0.1-0.2,0-0.4-0.1-0.5C24.7,21.6,23.5,18.8,23.5,15.7L23.5,15.7z
			 M13.5,3.8c0-0.8,0.7-1.5,1.5-1.5c0.8,0,1.5,0.7,1.5,1.5v0.1c-1-0.1-2-0.1-3,0V3.8z M15.1,27.7c-1.3,0-2.4-0.6-3.2-1.7
			c1.1,0.1,2.2,0.2,3.2,0.2c1,0,2.1-0.1,3.2-0.2C17.5,27.1,16.4,27.7,15.1,27.7L15.1,27.7z M21.8,24.6c-1,0.2-1.8,0.3-2.7,0.4h0
			c-0.4,0-0.7,0.1-1.1,0.1c0,0,0,0,0,0c-0.3,0-0.6,0.1-0.9,0.1c-0.1,0-0.1,0-0.2,0c-0.3,0-0.5,0-0.8,0c-0.1,0-0.1,0-0.2,0
			c-0.6,0-1.2,0-1.9,0c-0.1,0-0.1,0-0.2,0c-0.3,0-0.5,0-0.8,0c-0.1,0-0.1,0-0.2,0c-0.3,0-0.6,0-0.9-0.1c0,0,0,0,0,0
			c-0.3,0-0.7-0.1-1.1-0.1h0c-0.8-0.1-1.7-0.2-2.7-0.4l-3.8-0.7c2-2.3,3-5,3-8.2v-4.5c0-2.7,1.9-4.8,3.8-5.7
			c0.6-0.3,1.2-0.5,1.7-0.6c0,0,0,0,0,0c1.2-0.3,2.5-0.3,3.8,0c0,0,0,0,0,0c0.7,0.1,1.3,0.3,1.9,0.6c1.8,0.8,3.7,2.9,3.7,5.7v4.5
			c0,3,1.1,5.8,3.2,8.2L21.8,24.6z M21.8,24.6"/>
		<path class="st0" d="M18.2,6.9C16.3,6,13.9,6,12,6.9c-1.1,0.5-3,2-3,4.3c0,0.3,0.2,0.5,0.5,0.5h0c0.3,0,0.5-0.2,0.5-0.5
			c0-1.8,1.5-3,2.4-3.4c1.7-0.8,3.7-0.8,5.4,0c0.3,0.1,0.5,0,0.7-0.2C18.6,7.3,18.5,7,18.2,6.9L18.2,6.9z M18.2,6.9"/>
		<path class="st0" d="M2.4,11.4c-0.2-0.2-0.5-0.2-0.7,0C0.6,12.5,0,13.9,0,15.5c0,1.6,0.6,3,1.7,4.1c0.1,0.1,0.2,0.1,0.4,0.1
			c0.1,0,0.3,0,0.4-0.1c0.2-0.2,0.2-0.5,0-0.7C1.5,18,1,16.8,1,15.5c0-1.3,0.5-2.5,1.4-3.4C2.6,11.9,2.6,11.6,2.4,11.4L2.4,11.4z
			 M2.4,11.4"/>
		<path class="st0" d="M4.2,18.6c0.1,0,0.3-0.1,0.4-0.1c0.2-0.2,0.2-0.5,0-0.7c-1.3-1.3-1.3-3.4,0-4.6c0.2-0.2,0.2-0.5,0-0.7
			c-0.2-0.2-0.5-0.2-0.7,0c-1.7,1.7-1.7,4.4,0,6.1C3.9,18.5,4,18.6,4.2,18.6L4.2,18.6z M4.2,18.6"/>
		<path class="st0" d="M28.3,11.4c-0.2-0.2-0.5-0.2-0.7,0c-0.2,0.2-0.2,0.5,0,0.7c0.9,0.9,1.4,2.1,1.4,3.4c0,1.3-0.5,2.5-1.4,3.4
			c-0.2,0.2-0.2,0.5,0,0.7c0.1,0.1,0.2,0.1,0.4,0.1c0.1,0,0.3,0,0.4-0.1c1.1-1.1,1.7-2.5,1.7-4.1C30,13.9,29.4,12.5,28.3,11.4
			L28.3,11.4z M28.3,11.4"/>
		<path class="st0" d="M25.5,12.4c-0.2,0.2-0.2,0.5,0,0.7c1.3,1.3,1.3,3.4,0,4.6c-0.2,0.2-0.2,0.5,0,0.7c0.1,0.1,0.2,0.1,0.4,0.1
			c0.1,0,0.3-0.1,0.4-0.1c1.7-1.7,1.7-4.4,0-6.1C26,12.2,25.7,12.2,25.5,12.4L25.5,12.4z M25.5,12.4"/>
	</g>
</g>
</svg>
