<?xml version="1.0" encoding="utf-8"?>
<!-- Generator: Adobe Illustrator 22.1.0, SVG Export Plug-In . SVG Version: 6.00 Build 0)  -->
<svg version="1.1" id="Layer_1" xmlns="http://www.w3.org/2000/svg" xmlns:xlink="http://www.w3.org/1999/xlink" x="0px" y="0px"
	 width="30px" height="30px" viewBox="0 0 30 30" style="enable-background:new 0 0 30 30;" xml:space="preserve">
<style type="text/css">
	.st0{fill:#FFFFFF;}
</style>
<g>
	<g>
		<path class="st0" d="M4.5,27C4.2,27,4,26.8,4,26.5v-23C4,3.2,4.2,3,4.5,3S5,3.2,5,3.5v23C5,26.8,4.8,27,4.5,27z"/>
	</g>
	<g>
		<path class="st0" d="M19,17H4.5C4.2,17,4,16.8,4,16.5v-13C4,3.2,4.2,3,4.5,3H19c3.9,0,7,3.1,7,7S22.9,17,19,17z M5,16h14
			c3.3,0,6-2.7,6-6s-2.7-6-6-6H5V16z"/>
	</g>
	<g>
		<path class="st0" d="M29.5,30h-29C0.2,30,0,29.8,0,29.5v-29C0,0.2,0.2,0,0.5,0h29C29.8,0,30,0.2,30,0.5v29
			C30,29.8,29.8,30,29.5,30z M1,29h28V1H1V29z"/>
	</g>
</g>
</svg>
