<?xml version="1.0" encoding="utf-8"?>
<!-- Generator: Adobe Illustrator 22.1.0, SVG Export Plug-In . SVG Version: 6.00 Build 0)  -->
<svg version="1.1" id="Layer_1" xmlns="http://www.w3.org/2000/svg" xmlns:xlink="http://www.w3.org/1999/xlink" x="0px" y="0px"
	 width="30px" height="30px" viewBox="0 0 30 30" style="enable-background:new 0 0 30 30;" xml:space="preserve">
<style type="text/css">
	.st0{fill:#FFFFFF;}
</style>
<g>
	<path class="st0" d="M25.5,23.7c-0.9,0-1.7-0.8-1.7-1.7s0.8-1.7,1.7-1.7c0.9,0,1.7,0.8,1.7,1.7S26.4,23.7,25.5,23.7z M25.5,20.6
		c-0.7,0-1.4,0.6-1.4,1.4c0,0.7,0.6,1.4,1.4,1.4c0.7,0,1.4-0.6,1.4-1.4C26.8,21.2,26.2,20.6,25.5,20.6z"/>
	<path class="st0" d="M25.5,25.7c-1.7,0-3.2-1.2-3.6-2.8l-0.1-0.2H9.7l-0.1,0.2c-0.4,1.7-1.9,2.8-3.6,2.8c-2.1,0-3.8-1.7-3.8-3.8
		l0-0.3l-0.3-0.1H0.2c-0.1,0-0.2-0.1-0.2-0.2c0-1.4,0.6-2.9,1.8-4.6c0.7-1,1.3-1.7,1.6-1.9l0.1-0.1l0-0.1c0.1-1.2,1.1-2.1,2.3-2.1
		H13c0.6,0,1.1,0.3,1.4,0.8c0.3,0.5,0.2,1.1-0.1,1.6c-1.4,1.2-2.1,2.1-2.2,3c0,0.5,0.2,1,0.6,1.5c0.7,0.8,1.9,1.2,3.4,1.2
		c0.5,0,0.9,0,1.4-0.1c1.8-0.4,3.2-1.3,3.7-2.6c0.3-0.9,0.2-2-0.4-3.3c-0.5-1.2-1.3-2.3-1.9-3c-0.1-0.1-0.1-0.2-0.2-0.3l-0.2-0.4
		l-1.2,1.3c0,0-0.1,0.1-0.1,0.1c0,0-0.1,0-0.1,0c-0.1-0.1-0.1-0.2,0-0.2l1.5-1.7l0-0.1c0.1-0.3,0.2-0.6,0.4-0.8L19,9.1l-0.7-3.3
		h-1.1V7c0,0.1-0.1,0.2-0.2,0.2c-0.1,0-0.2-0.1-0.2-0.2V4.4c0-0.1,0.1-0.2,0.2-0.2c0.1,0,0.2,0.1,0.2,0.2v1.1h1.2
		c0.1,0,0.1,0.1,0.2,0.1l0.6,2.6l0.4-0.5c0.3-0.3,0.6-0.5,1-0.6L21.4,7l0.1,0c0,0,0.1,0.1,0.1,0.1v4.4l0.1,0.1
		c1.5,1.8,2.4,3.3,2.6,4.3l0.1,0.3l0.3,0c0.3,0,0.6-0.1,0.9-0.1c1.7,0,3.4,0.8,4.5,2.1c0,0,0,0.1,0,0.1c0,0,0,0.1-0.1,0.1l-1.5,1.2
		l0.2,0.3c0.4,0.6,0.6,1.3,0.6,2.1C29.2,24,27.6,25.7,25.5,25.7z M25.5,18.5c-1.9,0-3.4,1.5-3.4,3.4s1.5,3.4,3.4,3.4
		c1.9,0,3.4-1.5,3.4-3.4S27.4,18.5,25.5,18.5z M2.6,22c0,1.9,1.5,3.4,3.4,3.4s3.4-1.5,3.4-3.4l0-0.4l-1.7,0l0,0.3
		c0,1-0.8,1.8-1.7,1.8S4.3,22.9,4.3,22l0-0.4L4,21.5H2.6L2.6,22z M4.6,21.8c0,0,0,0.1,0,0.1c0,0.7,0.6,1.4,1.4,1.4s1.4-0.6,1.4-1.4
		c0-0.1,0-0.1,0-0.1l0-0.3H4.7L4.6,21.8z M7.6,16.2c0.2,0,0.4,0,0.7,0c1.3,0.1,2.1,0.5,2.4,1.1c0.6,1.1-0.2,2.8-0.9,4l-0.1,0.1
		l0,0.1c0,0.1,0,0.3,0,0.4v0.3l0.3,0h9.6V22c0-0.5,0.1-1,0.2-1.5l0.2-0.7l-0.7,0.3c-0.5,0.3-1.2,0.5-1.8,0.6c-0.5,0.1-1,0.1-1.5,0.1
		c-1.5,0-2.8-0.5-3.6-1.3c-0.5-0.5-0.7-1.1-0.7-1.7c0.1-0.7,0.5-1.5,1.3-2.3l0.6-0.6H3.7l-0.1,0.1c-0.7,0.7-2.9,3.2-3.2,5.7l0,0.4
		h0.8l0.1-0.2c0.1-0.5,0.5-1.4,1.2-2.3C3.2,17.5,4.8,16.2,7.6,16.2z M25.5,16.5c-3,0-5.5,2.5-5.5,5.5v0.3l0.3,0h1.4V22
		c0-2.1,1.7-3.8,3.8-3.8c0.9,0,1.9,0.4,2.6,1l0.2,0.2l1.4-1.1L29.3,18C28.3,17,26.9,16.5,25.5,16.5z M7.5,16.5
		c-2.1,0-3.7,0.8-4.9,2.2c-0.6,0.7-0.9,1.5-1.1,2l-0.2,0.4h8L9.6,21c0.9-1.6,1.2-2.8,0.8-3.5c-0.3-0.6-1-0.9-2.2-1
		C8,16.5,7.8,16.5,7.5,16.5z M18.9,9.8c-0.1,0.2-0.1,0.3-0.2,0.5c0,0.4,0.1,0.7,0.3,1c1.7,2.2,2.6,4.1,2.6,5.6l0,0.7l0.5-0.4
		c0.5-0.3,1-0.6,1.5-0.8l0.3-0.1l0-0.3c-0.2-2-3.7-5.7-4.5-6.4l-0.3-0.3L18.9,9.8z M9.7,14.7H14l0.1-0.2c0.1-0.3,0.1-0.6-0.1-0.9
		c-0.2-0.4-0.6-0.6-1.1-0.6H9.7V14.7z M5.8,12.9c-0.9,0-1.6,0.5-1.9,1.4l-0.1,0.4h5.7v-1.8H5.8z M20.7,7.5c-0.7,0.2-1.2,0.7-1.3,1.4
		l0,0.2l0.1,0.1c0.2,0.2,0.7,0.7,1.2,1.2l0.6,0.6V7.3L20.7,7.5z"/>
</g>
</svg>
