<?xml version="1.0" encoding="utf-8"?>
<!-- Generator: Adobe Illustrator 22.1.0, SVG Export Plug-In . SVG Version: 6.00 Build 0)  -->
<svg version="1.1" id="Layer_1" xmlns="http://www.w3.org/2000/svg" xmlns:xlink="http://www.w3.org/1999/xlink" x="0px" y="0px"
	 width="85.3px" height="32px" viewBox="0 0 85.3 32" style="enable-background:new 0 0 85.3 32;" xml:space="preserve">
<style type="text/css">
	.st0{fill-rule:evenodd;clip-rule:evenodd;}
	.st1{fill:#808080;}
	.st2{fill:#FFFF00;}
	.st3{fill-rule:evenodd;clip-rule:evenodd;fill:#FFFFFF;}
</style>
<g id="SpotLock_1_">
	<g>
		<path d="M23.3,15.4c0,0.6,0.2,1.1,0.5,1.6c0.3,0.5,0.7,0.8,1.1,1.1c0.4,0.3,0.9,0.5,1.3,0.7c0.4,0.2,0.8,0.4,1.1,0.6
			c0.3,0.2,0.5,0.4,0.5,0.7c0,0.4-0.4,0.7-1.1,0.7c-0.9,0-2-0.3-3.3-0.9v2.3c1,0.5,2.1,0.7,3.4,0.7c1.2,0,2.1-0.3,2.8-0.8
			c0.7-0.5,1-1.3,1-2.3c0-0.6-0.2-1.2-0.5-1.6c-0.3-0.5-0.7-0.8-1.1-1.1c-0.4-0.3-0.9-0.5-1.3-0.7c-0.4-0.2-0.8-0.4-1.1-0.6
			c-0.3-0.2-0.5-0.4-0.5-0.6c0-0.4,0.3-0.6,1-0.6c1,0,2,0.3,3.2,0.8v-2.2c-1-0.5-2.2-0.7-3.4-0.7c-1,0-1.8,0.3-2.5,0.8
			C23.7,13.7,23.3,14.5,23.3,15.4L23.3,15.4z"/>
	</g>
	<g>
		<path d="M36.3,15.1c-0.4,0-0.9,0.1-1.3,0.4l-0.9,0.8l-0.1-1h-2.4v10.7h2.5v-3.5c0.6,0.3,1.1,0.4,1.7,0.4c0.9,0,1.7-0.3,2.3-1
			c0.6-0.7,0.9-1.6,0.9-2.8c0-1.2-0.2-2.1-0.7-2.8C37.8,15.5,37.1,15.1,36.3,15.1L36.3,15.1z M35.1,21.2c-0.3,0-0.6-0.1-1-0.2v-3.7
			c0.2-0.2,0.6-0.4,1-0.4c0.8,0,1.3,0.7,1.3,2.1C36.4,20.4,36,21.2,35.1,21.2L35.1,21.2z"/>
	</g>
	<g>
		<path d="M43.6,22.8c1.2,0,2.1-0.3,2.8-1c0.7-0.7,1-1.6,1-2.8c0-1.2-0.3-2.1-1-2.8c-0.7-0.7-1.6-1-2.8-1c-1.2,0-2.1,0.3-2.8,1
			c-0.7,0.7-1,1.6-1,2.8c0,1.2,0.3,2.1,1,2.8C41.4,22.5,42.4,22.8,43.6,22.8L43.6,22.8z M43.6,16.7c0.5,0,0.8,0.2,0.9,0.6
			c0.2,0.4,0.3,0.9,0.3,1.7c0,0.7-0.1,1.3-0.3,1.7c-0.2,0.4-0.5,0.6-0.9,0.6c-0.5,0-0.8-0.2-0.9-0.6c-0.2-0.4-0.3-0.9-0.3-1.7
			c0-0.7,0.1-1.3,0.3-1.7C42.8,16.9,43.1,16.7,43.6,16.7L43.6,16.7z"/>
	</g>
	<g>
		<path d="M48,17h0.7v3.5c0,0.8,0.2,1.4,0.6,1.7c0.4,0.3,1,0.5,1.9,0.5c0.7,0,1.3-0.1,1.7-0.3v-1.8c-0.3,0.1-0.6,0.1-0.9,0.1
			c-0.5,0-0.8-0.2-0.8-0.7V17h1.7v-1.8h-1.7v-1.8h-0.9l-1.6,1.8L48,16V17L48,17z"/>
	</g>
	<g>
		<polygon points="61.2,20.4 56.8,20.4 56.8,12.6 54.2,12.6 54.2,22.7 61,22.7 61.2,20.4 		"/>
	</g>
	<g>
		<path d="M65.6,22.8c1.2,0,2.1-0.3,2.8-1c0.7-0.7,1-1.6,1-2.8c0-1.2-0.3-2.1-1-2.8c-0.7-0.7-1.6-1-2.8-1c-1.2,0-2.1,0.3-2.8,1
			c-0.7,0.7-1,1.6-1,2.8c0,1.2,0.3,2.1,1,2.8C63.4,22.5,64.4,22.8,65.6,22.8L65.6,22.8z M65.6,16.7c0.5,0,0.8,0.2,0.9,0.6
			c0.2,0.4,0.3,0.9,0.3,1.7c0,0.7-0.1,1.3-0.3,1.7c-0.2,0.4-0.5,0.6-0.9,0.6c-0.5,0-0.8-0.2-0.9-0.6c-0.2-0.4-0.3-0.9-0.3-1.7
			c0-0.7,0.1-1.3,0.3-1.7C64.8,16.9,65.1,16.7,65.6,16.7L65.6,16.7z"/>
	</g>
	<g>
		<path d="M74.2,16.9c0.5,0,1,0.1,1.6,0.4l0.2-0.2l0.4-1.5c-0.8-0.3-1.6-0.5-2.5-0.5c-1.3,0-2.2,0.4-2.9,1.1c-0.7,0.7-1,1.6-1,2.8
			c0,1.2,0.3,2.1,1,2.8c0.6,0.7,1.6,1.1,2.7,1.1c1,0,1.8-0.2,2.5-0.6v-1.8c-0.7,0.4-1.3,0.6-1.9,0.6c-1.1,0-1.7-0.7-1.7-2.1
			c0-0.6,0.1-1.1,0.4-1.5C73.4,17.1,73.7,16.9,74.2,16.9L74.2,16.9z"/>
	</g>
	<g>
		<path d="M79.3,12l-1.8,0.6v10.1h2.5V12H79.3L79.3,12z M82.7,22.7h2.6v-0.4L83,18.6l2-2.9v-0.4h-2.3l-2.4,3.6L82.7,22.7L82.7,22.7z
			"/>
	</g>
	<g>
		<g>
			<path class="st0" d="M3.2,24.7C1.4,23,0.4,20.6,0.4,18c0-5.2,4.2-9.5,9.5-9.5c5.2,0,9.5,4.2,9.5,9.5c0,2.4-0.9,4.9-2.8,6.7
				l-6.7,6.7L3.2,24.7L3.2,24.7z"/>
		</g>
		<g>
			<path class="st1" d="M16.4,9.5c-0.4,0-0.7-0.3-0.7-0.7V7.3c0-3.2-2.6-5.8-5.8-5.8S4,4.1,4,7.3v1.5c0,0.4-0.3,0.7-0.7,0.7
				S2.6,9.2,2.6,8.8V7.3c0-4,3.3-7.3,7.3-7.3s7.3,3.3,7.3,7.3v1.5C17.1,9.2,16.8,9.5,16.4,9.5z"/>
		</g>
		<g>
			<rect x="0.4" y="17.5" class="st2" width="19" height="0.8"/>
		</g>
		<g>
			<path class="st2" d="M13,24c-0.1,0-0.1,0-0.2-0.1c-0.2-0.1-0.2-0.3-0.1-0.5l3.3-5.7c0.1-0.2,0.3-0.2,0.5-0.1
				c0.2,0.1,0.2,0.3,0.1,0.5l-3.3,5.7C13.3,23.9,13.2,24,13,24z M6.6,24c-0.1,0-0.1,0-0.2-0.1c-0.2-0.1-0.2-0.3-0.1-0.5l3.2-5.5
				c0-0.1,0-0.1,0.1-0.2l3.3-5.7c0.1-0.2,0.3-0.2,0.5-0.1c0.2,0.1,0.2,0.3,0.1,0.5l-3.2,5.5c0,0.1,0,0.1-0.1,0.2L7,23.8
				C6.9,23.9,6.8,24,6.6,24z M3.4,18.3c-0.1,0-0.1,0-0.2-0.1c-0.2-0.1-0.2-0.3-0.1-0.5l3.3-5.7c0.1-0.2,0.3-0.2,0.5-0.1
				C7.1,12,7.2,12.3,7,12.5l-3.3,5.7C3.7,18.2,3.6,18.3,3.4,18.3z"/>
		</g>
		<g>
			<path d="M9.9,32l-7-7C1,23.2,0,20.7,0,18c0-5.4,4.4-9.9,9.9-9.9c5.4,0,9.9,4.4,9.9,9.9c0,2.6-1,5.1-2.9,7L9.9,32z M9.9,8.9
				c-5,0-9.1,4.1-9.1,9.1c0,2.4,0.9,4.7,2.7,6.4l6.4,6.4l6.4-6.4c1.7-1.7,2.7-4,2.7-6.4C19,13,14.9,8.9,9.9,8.9z"/>
		</g>
		<g>
			<polygon class="st3" points="8.1,15.6 7.8,14.5 9.1,15.3 8.1,15.6 			"/>
		</g>
		<g>
			<polygon class="st3" points="8.7,15 8.3,14.8 9,13.6 9.4,13.8 8.7,15 			"/>
		</g>
		<g>
			<polygon class="st3" points="14.7,15.6 14.4,14.5 15.7,15.3 14.7,15.6 			"/>
		</g>
		<g>
			<polygon class="st3" points="15.2,15 14.9,14.8 15.6,13.6 15.9,13.8 15.2,15 			"/>
		</g>
		<g>
			<polygon class="st3" points="12.3,19.9 12.5,20.9 11.3,20.2 12.3,19.9 			"/>
		</g>
		<g>
			<polygon class="st3" points="11.7,20.4 12.1,20.6 11.4,21.9 11,21.7 11.7,20.4 			"/>
		</g>
		<g>
			<polygon class="st3" points="5.7,19.9 6,20.9 4.7,20.2 5.7,19.9 			"/>
		</g>
		<g>
			<polygon class="st3" points="5.2,20.4 5.5,20.6 4.8,21.9 4.5,21.7 5.2,20.4 			"/>
		</g>
	</g>
</g>
</svg>
