<?xml version="1.0" encoding="utf-8"?>
<!-- Generator: Adobe Illustrator 22.1.0, SVG Export Plug-In . SVG Version: 6.00 Build 0)  -->
<svg version="1.1" id="Layer_1" xmlns="http://www.w3.org/2000/svg" xmlns:xlink="http://www.w3.org/1999/xlink" x="0px" y="0px"
	 width="30px" height="30px" viewBox="0 0 30 30" style="enable-background:new 0 0 30 30;" xml:space="preserve">
<style type="text/css">
	.st0{fill:url(#SVGID_1_);}
	.st1{fill:url(#SVGID_2_);}
	.st2{fill:url(#SVGID_3_);}
	.st3{fill:url(#SVGID_4_);}
	.st4{fill:url(#SVGID_5_);}
	.st5{fill:url(#SVGID_6_);}
	.st6{fill:url(#SVGID_7_);}
	.st7{fill:url(#SVGID_8_);}
	.st8{fill:url(#SVGID_9_);}
	.st9{fill:url(#SVGID_10_);}
	.st10{fill:url(#SVGID_11_);}
	.st11{fill:url(#SVGID_12_);}
</style>
<g>
	<linearGradient id="SVGID_1_" gradientUnits="userSpaceOnUse" x1="7.1026" y1="12.1194" x2="8.2745" y2="12.1194">
		<stop  offset="0" style="stop-color:#5693CD"/>
		<stop  offset="1" style="stop-color:#5596D1"/>
	</linearGradient>
	<path class="st0" d="M7.7,12.7c0.2,0,0.3-0.1,0.4-0.2c0.1-0.1,0.2-0.3,0.2-0.4c0-0.2-0.1-0.3-0.2-0.4c-0.1-0.1-0.3-0.2-0.4-0.2
		c-0.2,0-0.3,0.1-0.4,0.2c-0.1,0.1-0.2,0.3-0.2,0.4c0,0.2,0.1,0.3,0.2,0.4C7.4,12.6,7.5,12.7,7.7,12.7z"/>
	<linearGradient id="SVGID_2_" gradientUnits="userSpaceOnUse" x1="15.0815" y1="12.3437" x2="16.2534" y2="12.3437">
		<stop  offset="0" style="stop-color:#5693CD"/>
		<stop  offset="1" style="stop-color:#5596D1"/>
	</linearGradient>
	<path class="st1" d="M16.1,11.9c-0.1-0.1-0.3-0.2-0.4-0.2c-0.2,0-0.3,0.1-0.4,0.2c-0.1,0.1-0.2,0.3-0.2,0.4c0,0.2,0.1,0.3,0.2,0.4
		s0.3,0.2,0.4,0.2c0.2,0,0.3-0.1,0.4-0.2c0.1-0.1,0.2-0.3,0.2-0.4C16.3,12.2,16.2,12,16.1,11.9z"/>
	<linearGradient id="SVGID_3_" gradientUnits="userSpaceOnUse" x1="17.1323" y1="10.2929" x2="18.3042" y2="10.2929">
		<stop  offset="0" style="stop-color:#5693CD"/>
		<stop  offset="1" style="stop-color:#5596D1"/>
	</linearGradient>
	<path class="st2" d="M17.7,10.9c0.2,0,0.3-0.1,0.4-0.2c0.1-0.1,0.2-0.3,0.2-0.4c0-0.2-0.1-0.3-0.2-0.4c-0.1-0.1-0.3-0.2-0.4-0.2
		c-0.2,0-0.3,0.1-0.4,0.2c-0.1,0.1-0.2,0.3-0.2,0.4c0,0.2,0.1,0.3,0.2,0.4C17.4,10.8,17.6,10.9,17.7,10.9z"/>
	<linearGradient id="SVGID_4_" gradientUnits="userSpaceOnUse" x1="-1.144697e-04" y1="15" x2="30.0001" y2="15">
		<stop  offset="0" style="stop-color:#5693CD"/>
		<stop  offset="1" style="stop-color:#5596D1"/>
	</linearGradient>
	<path class="st3" d="M28.2,14.4h-1.6l2.9-2.9c0.3-0.3,0.5-0.8,0.5-1.2c0-0.5-0.2-0.9-0.5-1.2l-2.6-2.6c-0.2-0.2-0.6-0.2-0.8,0
		C25.7,6.8,25.3,7,24.8,7c-0.5,0-0.9-0.2-1.2-0.5C23.2,6.1,23,5.7,23,5.2c0-0.5,0.2-0.9,0.5-1.2c0.1-0.1,0.2-0.3,0.2-0.4
		s-0.1-0.3-0.2-0.4L21,0.5C20.6,0.2,20.2,0,19.7,0c-0.5,0-0.9,0.2-1.2,0.5l-9.7,9.7c-0.2,0.2-0.2,0.6,0,0.8s0.6,0.2,0.8,0l9.7-9.7
		c0.1-0.1,0.3-0.2,0.4-0.2c0.2,0,0.3,0.1,0.4,0.2l2.2,2.2c-0.3,0.5-0.5,1-0.5,1.6c0,0.8,0.3,1.5,0.9,2.1c0.6,0.6,1.3,0.9,2.1,0.9
		c0.6,0,1.1-0.2,1.6-0.5l2.2,2.2c0.2,0.2,0.2,0.6,0,0.8L25,14.4h-2.6l1.9-1.9c0.2-0.2,0.2-0.6,0-0.8l-6-6c-0.2-0.2-0.6-0.2-0.8,0
		l-8.7,8.7h-7c-1,0-1.8,0.8-1.8,1.8v3.7c0,0.3,0.3,0.6,0.6,0.6c1,0,1.8,0.8,1.8,1.8c0,1-0.8,1.8-1.8,1.8C0.3,24,0,24.2,0,24.6v3.7
		c0,1,0.8,1.8,1.8,1.8h26.5c1,0,1.8-0.8,1.8-1.8v-3.7c0-0.3-0.3-0.6-0.6-0.6c-1,0-1.8-0.8-1.8-1.8c0-1,0.8-1.8,1.8-1.8
		c0.3,0,0.6-0.3,0.6-0.6v-3.7C30,15.2,29.2,14.4,28.2,14.4z M17.9,6.9l5.1,5.1l-2.3,2.3h-2.3l1.7-1.7c0.2-0.2,0.2-0.6,0-0.8
		c-0.2-0.2-0.6-0.2-0.8,0l-2.5,2.5h-6.3L17.9,6.9z M28.8,19.3c-1.3,0.3-2.3,1.5-2.3,2.9c0,1.4,1,2.6,2.3,2.9v3.2
		c0,0.3-0.3,0.6-0.6,0.6H1.8c-0.3,0-0.6-0.3-0.6-0.6v-3.2c1.3-0.3,2.3-1.5,2.3-2.9c0-1.4-1-2.6-2.3-2.9v-3.2c0-0.3,0.3-0.6,0.6-0.6
		h26.5c0.3,0,0.6,0.3,0.6,0.6V19.3z"/>
	<linearGradient id="SVGID_5_" gradientUnits="userSpaceOnUse" x1="11.5136" y1="20.8007" x2="12.6855" y2="20.8007">
		<stop  offset="0" style="stop-color:#5693CD"/>
		<stop  offset="1" style="stop-color:#5596D1"/>
	</linearGradient>
	<path class="st4" d="M12.5,21.2c0.1-0.1,0.2-0.3,0.2-0.4c0-0.2-0.1-0.3-0.2-0.4c-0.1-0.1-0.3-0.2-0.4-0.2s-0.3,0.1-0.4,0.2
		c-0.1,0.1-0.2,0.3-0.2,0.4c0,0.2,0.1,0.3,0.2,0.4c0.1,0.1,0.3,0.2,0.4,0.2S12.4,21.3,12.5,21.2z"/>
	<linearGradient id="SVGID_6_" gradientUnits="userSpaceOnUse" x1="17.3145" y1="20.8007" x2="18.4864" y2="20.8007">
		<stop  offset="0" style="stop-color:#5693CD"/>
		<stop  offset="1" style="stop-color:#5596D1"/>
	</linearGradient>
	<path class="st5" d="M18.3,21.2c0.1-0.1,0.2-0.3,0.2-0.4c0-0.2-0.1-0.3-0.2-0.4c-0.1-0.1-0.3-0.2-0.4-0.2c-0.2,0-0.3,0.1-0.4,0.2
		c-0.1,0.1-0.2,0.3-0.2,0.4c0,0.2,0.1,0.3,0.2,0.4c0.1,0.1,0.3,0.2,0.4,0.2C18.1,21.4,18.2,21.3,18.3,21.2z"/>
	<linearGradient id="SVGID_7_" gradientUnits="userSpaceOnUse" x1="14.4141" y1="20.8007" x2="15.5859" y2="20.8007">
		<stop  offset="0" style="stop-color:#5693CD"/>
		<stop  offset="1" style="stop-color:#5596D1"/>
	</linearGradient>
	<path class="st6" d="M15.4,21.2c0.1-0.1,0.2-0.3,0.2-0.4c0-0.2-0.1-0.3-0.2-0.4c-0.1-0.1-0.3-0.2-0.4-0.2s-0.3,0.1-0.4,0.2
		c-0.1,0.1-0.2,0.3-0.2,0.4c0,0.2,0.1,0.3,0.2,0.4c0.1,0.1,0.3,0.2,0.4,0.2S15.3,21.3,15.4,21.2z"/>
	<linearGradient id="SVGID_8_" gradientUnits="userSpaceOnUse" x1="8.6132" y1="20.8007" x2="9.7851" y2="20.8007">
		<stop  offset="0" style="stop-color:#5693CD"/>
		<stop  offset="1" style="stop-color:#5596D1"/>
	</linearGradient>
	<path class="st7" d="M9.2,21.4c0.2,0,0.3-0.1,0.4-0.2c0.1-0.1,0.2-0.3,0.2-0.4c0-0.2-0.1-0.3-0.2-0.4c-0.1-0.1-0.3-0.2-0.4-0.2
		c-0.2,0-0.3,0.1-0.4,0.2c-0.1,0.1-0.2,0.3-0.2,0.4c0,0.2,0.1,0.3,0.2,0.4C8.9,21.3,9,21.4,9.2,21.4z"/>
	<linearGradient id="SVGID_9_" gradientUnits="userSpaceOnUse" x1="20.2149" y1="20.8007" x2="21.3868" y2="20.8007">
		<stop  offset="0" style="stop-color:#5693CD"/>
		<stop  offset="1" style="stop-color:#5596D1"/>
	</linearGradient>
	<path class="st8" d="M21.2,21.2c0.1-0.1,0.2-0.3,0.2-0.4c0-0.2-0.1-0.3-0.2-0.4c-0.1-0.1-0.3-0.2-0.4-0.2c-0.2,0-0.3,0.1-0.4,0.2
		c-0.1,0.1-0.2,0.3-0.2,0.4c0,0.2,0.1,0.3,0.2,0.4c0.1,0.1,0.3,0.2,0.4,0.2C21,21.4,21.1,21.3,21.2,21.2z"/>
	<linearGradient id="SVGID_10_" gradientUnits="userSpaceOnUse" x1="8.6132" y1="23.6132" x2="21.3868" y2="23.6132">
		<stop  offset="0" style="stop-color:#5693CD"/>
		<stop  offset="1" style="stop-color:#5596D1"/>
	</linearGradient>
	<path class="st9" d="M9.2,24.2h11.6c0.3,0,0.6-0.3,0.6-0.6c0-0.3-0.3-0.6-0.6-0.6H9.2c-0.3,0-0.6,0.3-0.6,0.6
		C8.6,23.9,8.9,24.2,9.2,24.2z"/>
	<linearGradient id="SVGID_11_" gradientUnits="userSpaceOnUse" x1="10.7414" y1="26.4258" x2="11.9133" y2="26.4258">
		<stop  offset="0" style="stop-color:#5693CD"/>
		<stop  offset="1" style="stop-color:#5596D1"/>
	</linearGradient>
	<path class="st10" d="M11.3,25.8c-0.2,0-0.3,0.1-0.4,0.2s-0.2,0.3-0.2,0.4c0,0.2,0.1,0.3,0.2,0.4c0.1,0.1,0.3,0.2,0.4,0.2
		c0.2,0,0.3-0.1,0.4-0.2c0.1-0.1,0.2-0.3,0.2-0.4c0-0.2-0.1-0.3-0.2-0.4C11.6,25.9,11.5,25.8,11.3,25.8z"/>
	<linearGradient id="SVGID_12_" gradientUnits="userSpaceOnUse" x1="5.5077" y1="22.207" x2="24.4923" y2="22.207">
		<stop  offset="0" style="stop-color:#5693CD"/>
		<stop  offset="1" style="stop-color:#5596D1"/>
	</linearGradient>
	<path class="st11" d="M23.9,17.4H6.1c-0.3,0-0.6,0.3-0.6,0.6v8.4c0,0.3,0.3,0.6,0.6,0.6h2.4c0.3,0,0.6-0.3,0.6-0.6
		c0-0.3-0.3-0.6-0.6-0.6H6.7v-7.3h16.6v7.3h-9.5c-0.3,0-0.6,0.3-0.6,0.6c0,0.3,0.3,0.6,0.6,0.6h10.1c0.3,0,0.6-0.3,0.6-0.6V18
		C24.5,17.7,24.2,17.4,23.9,17.4z"/>
</g>
</svg>
