<?xml version="1.0" encoding="utf-8"?>
<!-- Generator: Adobe Illustrator 22.1.0, SVG Export Plug-In . SVG Version: 6.00 Build 0)  -->
<svg version="1.1" id="Layer_1" xmlns="http://www.w3.org/2000/svg" xmlns:xlink="http://www.w3.org/1999/xlink" x="0px" y="0px"
	 width="30px" height="30px" viewBox="0 0 30 30" style="enable-background:new 0 0 30 30;" xml:space="preserve">
<style type="text/css">
	.st0{fill:url(#SVGID_1_);}
	.st1{fill:url(#SVGID_2_);}
	.st2{fill:url(#SVGID_3_);}
	.st3{fill-rule:evenodd;clip-rule:evenodd;fill:url(#SVGID_4_);}
</style>
<g>
	<linearGradient id="SVGID_1_" gradientUnits="userSpaceOnUse" x1="10.162" y1="6.7775" x2="10.6458" y2="6.7775">
		<stop  offset="0" style="stop-color:#4E60BC"/>
		<stop  offset="1" style="stop-color:#5157B5"/>
	</linearGradient>
	<rect x="10.2" y="6.3" class="st0" width="0.5" height="1"/>
	<linearGradient id="SVGID_2_" gradientUnits="userSpaceOnUse" x1="19.3542" y1="6.7775" x2="19.838" y2="6.7775">
		<stop  offset="0" style="stop-color:#4E60BC"/>
		<stop  offset="1" style="stop-color:#5157B5"/>
	</linearGradient>
	<rect x="19.4" y="6.3" class="st1" width="0.5" height="1"/>
	<linearGradient id="SVGID_3_" gradientUnits="userSpaceOnUse" x1="0.486" y1="15" x2="29.514" y2="15">
		<stop  offset="0" style="stop-color:#4E60BC"/>
		<stop  offset="1" style="stop-color:#5157B5"/>
	</linearGradient>
	<path class="st2" d="M29.5,17.2c0,0,0-0.1,0-0.1l-0.1-0.2c0,0,0-0.1-0.1-0.1c-0.2-0.2-0.4-0.3-0.6-0.4c-0.1,0-0.1-0.1-0.2-0.1
		c-0.1,0-0.2-0.1-0.4-0.1l-0.1,0c-0.1,0-0.2,0-0.2-0.1c-0.2-0.1-0.5-0.1-0.7-0.2c-0.2,0-0.4-0.1-0.6-0.1l-0.1,0
		c-0.1,0-0.3,0-0.4-0.1l0,0h0h0c-1-0.1-2.1-0.2-3.1-0.2c-0.3,0-0.6,0-1,0v-2c0-0.7-0.8-1.2-2.5-1.6c2.9-2.4,3.3-6.7,0.9-9.5
		s-6.7-3.3-9.5-0.9s-3.3,6.7-0.9,9.5c0.3,0.3,0.6,0.6,0.9,0.9c-1.6,0.3-2.5,0.9-2.5,1.6v2c-1.4-0.1-2.7,0-4.1,0.2
		c-0.1,0-0.3,0-0.5,0.1l-0.1,0c-0.2,0-0.4,0.1-0.6,0.1c-0.3,0.1-0.5,0.1-0.7,0.2c-0.1,0-0.2,0-0.2,0.1l-0.1,0
		c-0.1,0-0.2,0.1-0.3,0.1c-0.1,0-0.1,0-0.2,0.1c-0.2,0.1-0.4,0.2-0.6,0.4c0,0-0.1,0.1-0.1,0.1L0.6,17l0,0.1c0,0,0,0.1,0,0.1
		c0,0.1,0,0.1,0,0.2v8.7c0,1.9,6.1,1.9,6.8,1.9c0.3,0,0.6,0,1,0v0c0,1.9,6.1,1.9,6.8,1.9s6.8-0.1,6.8-1.9v0c0.3,0,0.7,0,1,0
		c0.7,0,6.8-0.1,6.8-1.9v-8.7C29.5,17.4,29.5,17.3,29.5,17.2z M28.5,18.5v1.8c-0.2,0.4-2.3,1-5.8,1c-0.3,0-0.6,0-1,0v-1.9
		c0.3,0,0.7,0,1,0h0.1c0.1,0,0.2,0,0.4,0h0.1c0.1,0,0.2,0,0.3,0h0c0.1,0,0.2,0,0.3,0l0.1,0c0.1,0,0.2,0,0.3,0h0c0.1,0,0.2,0,0.4,0
		l0.1,0c0.1,0,0.2,0,0.4,0h0c0.1,0,0.3,0,0.4,0l0.1,0c0.1,0,0.3,0,0.4,0h0c0.1,0,0.3,0,0.4-0.1l0.1,0c0.1,0,0.3,0,0.4-0.1h0
		c0.1,0,0.3-0.1,0.4-0.1l0.1,0c0.1,0,0.2-0.1,0.4-0.1l0,0c0.1,0,0.2-0.1,0.3-0.1l0.1,0C28.3,18.6,28.4,18.6,28.5,18.5L28.5,18.5z
		 M28.5,23.2C28.5,23.2,28.5,23.2,28.5,23.2C28.5,23.2,28.5,23.2,28.5,23.2c-0.1,0.1-0.1,0.1-0.1,0.1c0,0,0,0-0.1,0c0,0,0,0-0.1,0
		c0,0,0,0-0.1,0c0,0-0.1,0-0.1,0c0,0-0.1,0-0.1,0c0,0-0.1,0-0.1,0c0,0-0.1,0-0.1,0c0,0-0.1,0-0.1,0c0,0-0.1,0-0.1,0s-0.1,0-0.2,0
		c-0.1,0-0.1,0-0.2,0c-0.1,0-0.1,0-0.2,0s-0.1,0-0.2,0c-0.1,0-0.1,0-0.2,0c-0.1,0-0.1,0-0.2,0c-0.1,0-0.1,0-0.2,0
		c-0.1,0-0.1,0-0.2,0c-0.1,0-0.2,0-0.2,0c-0.1,0-0.1,0-0.2,0c-0.1,0-0.2,0-0.3,0c-0.1,0-0.1,0-0.2,0c-0.1,0-0.2,0-0.3,0
		c-0.1,0-0.2,0-0.2,0c-0.1,0-0.2,0-0.3,0c-0.1,0-0.2,0-0.3,0c-0.1,0-0.3,0-0.4,0c-0.1,0-0.1,0-0.2,0c-0.2,0-0.4,0-0.6,0
		c-0.3,0-0.5,0-0.8,0l-0.2,0v-1.9c0.3,0,0.7,0,1,0c0.5,0,4.1,0,5.8-0.8V23.2z M20.7,25.2C20.7,25.2,20.7,25.2,20.7,25.2
		c-0.1,0.1-0.1,0.1-0.1,0.1c0,0,0,0-0.1,0c0,0,0,0-0.1,0s-0.1,0-0.1,0c0,0-0.1,0-0.1,0c0,0-0.1,0-0.1,0s-0.1,0-0.1,0
		c0,0-0.1,0-0.1,0c0,0-0.1,0-0.1,0c0,0-0.1,0-0.2,0s-0.1,0-0.2,0c-0.1,0-0.1,0-0.2,0s-0.1,0-0.2,0s-0.1,0-0.2,0s-0.1,0-0.2,0
		c-0.1,0-0.1,0-0.2,0s-0.1,0-0.2,0c-0.1,0-0.2,0-0.2,0c-0.1,0-0.1,0-0.2,0c-0.1,0-0.2,0-0.3,0c-0.1,0-0.1,0-0.2,0
		c-0.1,0-0.2,0-0.3,0c-0.1,0-0.2,0-0.2,0c-0.1,0-0.2,0-0.3,0c-0.1,0-0.2,0-0.3,0c-0.1,0-0.3,0-0.4,0c-0.1,0-0.1,0-0.2,0
		c-0.2,0-0.4,0-0.6,0s-0.4,0-0.6,0c-0.1,0-0.1,0-0.2,0c-0.1,0-0.3,0-0.4,0c-0.1,0-0.2,0-0.3,0c-0.1,0-0.2,0-0.3,0
		c-0.1,0-0.2,0-0.2,0c-0.1,0-0.2,0-0.3,0c-0.1,0-0.2,0-0.2,0c-0.1,0-0.2,0-0.3,0c-0.1,0-0.1,0-0.2,0c-0.1,0-0.2,0-0.2,0
		c-0.1,0-0.1,0-0.2,0s-0.1,0-0.2,0c-0.1,0-0.1,0-0.2,0s-0.1,0-0.2,0c-0.1,0-0.1,0-0.2,0c-0.1,0-0.1,0-0.2,0c-0.1,0-0.1,0-0.2,0
		c-0.1,0-0.1,0-0.2,0c-0.1,0-0.1,0-0.1,0c0,0-0.1,0-0.1,0c0,0-0.1,0-0.1,0s-0.1,0-0.1,0c0,0-0.1,0-0.1,0s-0.1,0-0.1,0s-0.1,0-0.1,0
		c0,0-0.1,0-0.1,0c0,0,0,0-0.1,0c0,0,0,0-0.1,0c0,0,0,0,0,0c0,0,0,0,0,0v-1.8l0,0c0.1,0,0.2,0.1,0.3,0.1l0.1,0
		c0.1,0,0.2,0.1,0.3,0.1l0,0c0.1,0,0.2,0.1,0.4,0.1l0.1,0c0.1,0,0.3,0.1,0.4,0.1h0c0.1,0,0.3,0,0.4,0.1l0.1,0c0.1,0,0.3,0,0.4,0.1h0
		c0.1,0,0.3,0,0.4,0l0.1,0c0.1,0,0.3,0,0.4,0h0c0.1,0,0.3,0,0.4,0l0.1,0c0.1,0,0.2,0,0.4,0h0c0.1,0,0.2,0,0.3,0l0.1,0
		c0.1,0,0.2,0,0.3,0h0c0.1,0,0.2,0,0.3,0h0.1c0.2,0,0.3,0,0.4,0H15c0.1,0,0.3,0,0.5,0c0.3,0,0.6,0,0.9,0c0.1,0,0.2,0,0.3,0
		c1.2-0.1,2.5-0.3,3.7-0.6l0,0c0.1,0,0.2-0.1,0.3-0.1c0,0,0,0,0,0L20.7,25.2C20.8,25.1,20.8,25.1,20.7,25.2
		C20.8,25.2,20.8,25.2,20.7,25.2z M6.6,24.2c-0.1,0-0.1,0-0.2,0c-0.1,0-0.3,0-0.4,0c-0.1,0-0.2,0-0.3,0c-0.1,0-0.2,0-0.3,0
		c-0.1,0-0.2,0-0.2,0c-0.1,0-0.2,0-0.3,0c-0.1,0-0.2,0-0.2,0c-0.1,0-0.2,0-0.3,0c-0.1,0-0.1,0-0.2,0c-0.1,0-0.2,0-0.2,0
		c-0.1,0-0.1,0-0.2,0c-0.1,0-0.1,0-0.2,0c-0.1,0-0.1,0-0.2,0c-0.1,0-0.1,0-0.2,0c-0.1,0-0.1,0-0.2,0s-0.1,0-0.2,0s-0.1,0-0.2,0
		c-0.1,0-0.1,0-0.2,0s-0.1,0-0.1,0c0,0-0.1,0-0.1,0c0,0-0.1,0-0.1,0c0,0-0.1,0-0.1,0s-0.1,0-0.1,0c0,0-0.1,0-0.1,0c0,0-0.1,0-0.1,0
		c0,0-0.1,0-0.1,0c0,0,0,0-0.1,0s0,0-0.1,0c0,0,0,0,0,0c0,0,0,0,0,0v-1.8c1.7,0.8,5.3,0.8,5.8,0.8c0.3,0,0.6,0,1,0v1.9l-0.2,0
		c-0.3,0-0.5,0-0.8,0C7,24.2,6.8,24.2,6.6,24.2z M1.5,18.5L1.5,18.5c0.1,0,0.2,0.1,0.3,0.1l0.1,0c0.1,0,0.2,0.1,0.3,0.1l0,0
		c0.1,0,0.2,0.1,0.4,0.1l0.1,0C2.8,18.9,2.9,19,3,19h0c0.1,0,0.3,0,0.4,0.1l0.1,0c0.1,0,0.3,0,0.4,0.1h0c0.1,0,0.3,0,0.4,0l0.1,0
		c0.1,0,0.3,0,0.4,0h0c0.1,0,0.3,0,0.4,0l0.1,0c0.1,0,0.2,0,0.4,0h0c0.1,0,0.2,0,0.3,0l0.1,0c0.1,0,0.2,0,0.3,0h0c0.1,0,0.2,0,0.3,0
		h0.1c0.2,0,0.3,0,0.4,0h0.1c0.3,0,0.6,0,1,0v1.9c-0.3,0-0.7,0-1,0c-3.5,0-5.6-0.6-5.8-1V18.5z M9.5,14.8L9.5,14.8
		c0.2,0.1,0.3,0.1,0.4,0.1l0,0c0.1,0,0.2,0.1,0.4,0.1l0.1,0c0.1,0,0.3,0.1,0.4,0.1h0c0.1,0,0.3,0,0.4,0.1l0.1,0c0.1,0,0.3,0,0.4,0.1
		h0c0.1,0,0.3,0,0.4,0l0.1,0c0.1,0,0.3,0,0.4,0h0c0.1,0,0.3,0,0.4,0l0.1,0c0.1,0,0.2,0,0.4,0h0c0.1,0,0.2,0,0.3,0l0.1,0
		c0.1,0,0.2,0,0.3,0h0c0.1,0,0.2,0,0.3,0h0.1c0.2,0,0.3,0,0.4,0h0.3c0.1,0,0.2,0,0.4,0h0.1c0.1,0,0.2,0,0.3,0h0c0.1,0,0.2,0,0.3,0
		l0.1,0c0.1,0,0.2,0,0.3,0h0c0.1,0,0.2,0,0.4,0l0.1,0c0.1,0,0.2,0,0.4,0h0c0.1,0,0.3,0,0.4,0l0.1,0c0.1,0,0.3,0,0.4,0h0
		c0.1,0,0.3,0,0.4-0.1l0.1,0c0.1,0,0.3,0,0.4-0.1h0c0.1,0,0.3-0.1,0.4-0.1l0.1,0c0.1,0,0.2-0.1,0.4-0.1l0,0c0.1,0,0.2-0.1,0.3-0.1
		l0.1,0c0.1,0,0.2-0.1,0.3-0.1l0,0v1.8c0,0,0,0,0,0c0,0,0,0,0,0s0,0,0,0c0,0,0,0,0,0c0,0,0,0,0,0c0,0,0,0,0,0c0,0,0,0-0.1,0
		c0,0,0,0-0.1,0s0,0-0.1,0s-0.1,0-0.1,0l-0.1,0c0,0-0.1,0-0.1,0l-0.1,0c0,0-0.1,0-0.1,0l-0.1,0c-0.1,0-0.1,0-0.2,0.1l0,0
		c-0.1,0-0.1,0-0.2,0.1l0,0c-0.1,0-0.2,0-0.3,0.1l0,0c-0.5,0.1-1,0.2-1.5,0.2l-0.1,0c-0.1,0-0.2,0-0.3,0c-0.2,0-0.3,0-0.5,0l0,0h0
		c-0.1,0-0.2,0-0.3,0l0,0c-0.5,0-1,0-1.4,0c-0.2,0-0.4,0-0.6,0c-0.1,0-0.1,0-0.2,0c-0.1,0-0.3,0-0.4,0c-0.1,0-0.2,0-0.3,0
		c-0.1,0-0.2,0-0.3,0c-0.1,0-0.2,0-0.2,0c-0.1,0-0.2,0-0.3,0c-0.1,0-0.2,0-0.2,0c-0.1,0-0.2,0-0.3,0c-0.1,0-0.1,0-0.2,0
		c-0.1,0-0.2,0-0.2,0c-0.1,0-0.1,0-0.2,0c-0.1,0-0.1,0-0.2,0c-0.1,0-0.1,0-0.2,0c-0.1,0-0.1,0-0.2,0c-0.1,0-0.1,0-0.2,0
		s-0.1,0-0.2,0c-0.1,0-0.1,0-0.2,0c-0.1,0-0.1,0-0.2,0c-0.1,0-0.1,0-0.1,0c0,0-0.1,0-0.1,0c0,0-0.1,0-0.1,0s-0.1,0-0.1,0
		c0,0-0.1,0-0.1,0c0,0-0.1,0-0.1,0c0,0-0.1,0-0.1,0c0,0-0.1,0-0.1,0c0,0,0,0-0.1,0c0,0,0,0-0.1,0c0,0,0,0,0,0c0,0,0,0,0,0v-1.8l0,0
		C9.3,14.7,9.4,14.7,9.5,14.8z M19.7,22.7L19.7,22.7c-0.1,0-0.2,0-0.2,0.1c-0.3,0.1-0.7,0.1-1.1,0.2l-0.1,0c-0.1,0-0.2,0-0.3,0
		c-0.1,0-0.2,0-0.3,0l-0.1,0c-0.3,0-0.6,0.1-0.9,0.1c0,0-0.1,0-0.1,0c-0.1,0-0.1,0-0.2,0c-0.2,0-0.4,0-0.7,0h0c-0.2,0-0.5,0-0.7,0
		c-0.2,0-0.4,0-0.6,0c-0.1,0-0.1,0-0.2,0c-0.1,0-0.3,0-0.4,0c-0.1,0-0.2,0-0.3,0c-0.1,0-0.2,0-0.3,0c-0.1,0-0.2,0-0.2,0
		c-0.1,0-0.2,0-0.3,0c-0.1,0-0.2,0-0.2,0c-0.1,0-0.2,0-0.3,0c-0.1,0-0.1,0-0.2,0c-0.1,0-0.2,0-0.2,0c-0.1,0-0.1,0-0.2,0
		s-0.1,0-0.2,0c-0.1,0-0.1,0-0.2,0c-0.1,0-0.1,0-0.2,0c-0.1,0-0.1,0-0.2,0c-0.1,0-0.1,0-0.2,0c-0.1,0-0.1,0-0.2,0
		c-0.1,0-0.1,0-0.2,0c-0.1,0-0.1,0-0.1,0c0,0-0.1,0-0.1,0c0,0-0.1,0-0.1,0s-0.1,0-0.1,0c0,0-0.1,0-0.1,0s-0.1,0-0.1,0
		c0,0-0.1,0-0.1,0c0,0-0.1,0-0.1,0c0,0,0,0-0.1,0c0,0,0,0-0.1,0c0,0,0,0,0,0c0,0,0,0,0,0v-1.8l0,0c0.1,0,0.2,0.1,0.3,0.1l0.1,0
		c0.1,0,0.2,0.1,0.3,0.1l0,0c0.1,0,0.2,0.1,0.4,0.1l0.1,0c0.1,0,0.3,0.1,0.4,0.1h0c0.1,0,0.3,0,0.4,0.1l0.1,0c0.1,0,0.3,0,0.4,0.1h0
		c0.1,0,0.3,0,0.4,0l0.1,0c0.1,0,0.3,0,0.4,0h0c0.1,0,0.3,0,0.4,0l0.1,0c0.1,0,0.2,0,0.4,0h0c0.1,0,0.2,0,0.3,0l0.1,0
		c0.1,0,0.2,0,0.3,0h0c0.1,0,0.2,0,0.3,0h0.1c0.2,0,0.3,0,0.4,0H15c0.5,0,1,0,1.5,0c0.1,0,0.2,0,0.3,0c0.1,0,0.3,0,0.4,0l0.1,0
		c0.1,0,0.2,0,0.3,0l0.2,0c0.1,0,0.2,0,0.4,0l0.1,0c0.2,0,0.3,0,0.5-0.1c0,0,0.1,0,0.1,0c0.1,0,0.2,0,0.4-0.1l0.2,0
		c0.1,0,0.2-0.1,0.3-0.1c0,0,0.1,0,0.1,0c0.2,0,0.3-0.1,0.4-0.1c0,0,0,0,0.1,0c0.1,0,0.2-0.1,0.3-0.1c0,0,0,0,0.1,0v1.8c0,0,0,0,0,0
		C20.5,22.5,20.1,22.6,19.7,22.7z M9.5,17.7L9.5,17.7c0.2,0.1,0.3,0.1,0.4,0.1l0,0c0.1,0,0.2,0.1,0.4,0.1l0.1,0
		c0.1,0,0.3,0.1,0.4,0.1h0c0.1,0,0.3,0,0.4,0.1l0.1,0c0.1,0,0.3,0,0.4,0.1h0c0.1,0,0.3,0,0.4,0l0.1,0c0.1,0,0.3,0,0.4,0h0
		c0.1,0,0.3,0,0.4,0l0.1,0c0.1,0,0.2,0,0.4,0h0c0.1,0,0.2,0,0.3,0l0.1,0c0.1,0,0.2,0,0.3,0h0c0.1,0,0.2,0,0.3,0h0.1
		c0.2,0,0.3,0,0.4,0H15c0.5,0,1,0,1.5,0c0.1,0,0.2,0,0.3,0c0.1,0,0.3,0,0.4,0l0.1,0c0.1,0,0.2,0,0.3,0l0.2,0c0.1,0,0.2,0,0.4,0
		l0.1,0c0.2,0,0.3,0,0.5-0.1c0,0,0.1,0,0.1,0c0.1,0,0.2,0,0.4-0.1l0.2,0c0.1,0,0.2-0.1,0.3-0.1c0,0,0.1,0,0.1,0
		c0.2,0,0.3-0.1,0.4-0.1c0,0,0,0,0.1,0c0.1,0,0.2-0.1,0.3-0.1c0,0,0,0,0.1,0v1.8c0,0,0,0,0,0c0,0,0,0,0,0s0,0,0,0c0,0,0,0,0,0
		s0,0,0,0l0,0c0,0,0,0-0.1,0l0,0c0,0-0.1,0-0.1,0c0,0,0,0,0,0c0,0-0.1,0-0.1,0l0,0c-0.1,0-0.1,0-0.2,0.1l0,0c-0.1,0-0.1,0-0.2,0.1
		l0,0c-0.8,0.2-1.7,0.4-2.6,0.4c-0.2,0-0.3,0-0.5,0l0,0h0c-0.1,0-0.2,0-0.3,0c-0.5,0-1,0-1.4,0c-0.2,0-0.4,0-0.6,0
		c-0.1,0-0.1,0-0.2,0c-0.1,0-0.3,0-0.4,0c-0.1,0-0.2,0-0.3,0c-0.1,0-0.2,0-0.3,0c-0.1,0-0.2,0-0.2,0c-0.1,0-0.2,0-0.3,0
		c-0.1,0-0.2,0-0.2,0c-0.1,0-0.2,0-0.3,0c-0.1,0-0.1,0-0.2,0c-0.1,0-0.2,0-0.2,0c-0.1,0-0.1,0-0.2,0c-0.1,0-0.1,0-0.2,0
		c-0.1,0-0.1,0-0.2,0c-0.1,0-0.1,0-0.2,0s-0.1,0-0.2,0c-0.1,0-0.1,0-0.2,0c-0.1,0-0.1,0-0.2,0c-0.1,0-0.1,0-0.2,0
		c-0.1,0-0.1,0-0.1,0c0,0-0.1,0-0.1,0c0,0-0.1,0-0.1,0c0,0-0.1,0-0.1,0c0,0-0.1,0-0.1,0s-0.1,0-0.1,0s-0.1,0-0.1,0c0,0-0.1,0-0.1,0
		c0,0,0,0-0.1,0c0,0,0,0-0.1,0c0,0,0,0,0,0c0,0,0,0,0,0v-1.8l0,0C9.3,17.6,9.4,17.6,9.5,17.7z M25.7,16.6c0.2,0,0.3,0,0.4,0.1l0.1,0
		c0.2,0,0.4,0.1,0.6,0.1c0.2,0.1,0.5,0.1,0.7,0.2c0.1,0,0.1,0,0.2,0.1l0.1,0c0.1,0,0.2,0.1,0.3,0.1c0,0,0.1,0,0.1,0
		c0.1,0,0.2,0.1,0.3,0.2c0,0,0,0,0,0c0,0,0,0,0,0c0,0,0,0-0.1,0c0,0,0,0-0.1,0s0,0-0.1,0c0,0-0.1,0-0.1,0c0,0-0.1,0-0.1,0
		c0,0-0.1,0-0.1,0c0,0-0.1,0-0.1,0c0,0-0.1,0-0.1,0c0,0-0.1,0-0.1,0c0,0-0.1,0-0.1,0s-0.1,0-0.2,0l-0.2,0c-0.1,0-0.1,0-0.2,0
		s-0.1,0-0.2,0c-0.1,0-0.1,0-0.2,0c-0.1,0-0.1,0-0.2,0c-0.1,0-0.1,0-0.2,0c-0.1,0-0.1,0-0.2,0c-0.1,0-0.2,0-0.2,0
		c-0.1,0-0.1,0-0.2,0c-0.1,0-0.2,0-0.3,0c-0.1,0-0.1,0-0.2,0c-0.1,0-0.2,0-0.3,0c-0.1,0-0.2,0-0.2,0c-0.1,0-0.2,0-0.3,0
		c-0.1,0-0.2,0-0.2,0c-0.1,0-0.3,0-0.4,0c-0.1,0-0.1,0-0.2,0c-0.2,0-0.4,0-0.6,0c-0.3,0-0.6,0-1,0v-1.9
		C23.1,16.4,24.4,16.5,25.7,16.6z M9.2,6.8C9.2,3.6,11.8,1,15,1s5.8,2.6,5.8,5.8s-2.6,5.8-5.8,5.8C11.8,12.6,9.2,10,9.2,6.8z
		 M15,13.6c1.1,0,2.2-0.3,3.1-0.8c1.8,0.2,2.5,0.6,2.6,0.8c0,0,0,0,0,0c0,0,0,0,0,0c0,0,0,0-0.1,0c0,0,0,0-0.1,0s0,0-0.1,0
		c0,0,0,0-0.1,0c0,0-0.1,0-0.1,0c0,0-0.1,0-0.1,0s-0.1,0-0.1,0c0,0-0.1,0-0.1,0c0,0-0.1,0-0.1,0c0,0-0.1,0-0.1,0c-0.1,0-0.1,0-0.2,0
		l-0.1,0c-0.1,0-0.1,0-0.2,0c-0.1,0-0.1,0-0.2,0c-0.1,0-0.1,0-0.2,0l-0.2,0c-0.1,0-0.1,0-0.2,0l-0.2,0c-0.1,0-0.2,0-0.2,0
		c-0.1,0-0.1,0-0.2,0c-0.1,0-0.2,0-0.3,0c-0.1,0-0.1,0-0.2,0c-0.1,0-0.2,0-0.3,0c-0.1,0-0.1,0-0.2,0c-0.1,0-0.2,0-0.3,0
		c-0.1,0-0.1,0-0.2,0c-0.1,0-0.3,0-0.4,0c-0.1,0-0.1,0-0.2,0c-0.2,0-0.4,0-0.6,0c-0.2,0-0.4,0-0.6,0c-0.1,0-0.1,0-0.2,0
		c-0.1,0-0.3,0-0.4,0c-0.1,0-0.2,0-0.2,0c-0.1,0-0.2,0-0.3,0c-0.1,0-0.2,0-0.2,0c-0.1,0-0.2,0-0.3,0c-0.1,0-0.1,0-0.2,0
		c-0.1,0-0.2,0-0.3,0c-0.1,0-0.1,0-0.2,0c-0.1,0-0.2,0-0.2,0l-0.2,0c-0.1,0-0.2,0-0.2,0l-0.2,0c-0.1,0-0.1,0-0.2,0
		c-0.1,0-0.1,0-0.2,0c-0.1,0-0.1,0-0.2,0l-0.1,0c-0.1,0-0.1,0-0.2,0c0,0-0.1,0-0.1,0c-0.1,0-0.1,0-0.1,0c0,0-0.1,0-0.1,0
		s-0.1,0-0.1,0c0,0-0.1,0-0.1,0c0,0-0.1,0-0.1,0c0,0-0.1,0-0.1,0c0,0-0.1,0-0.1,0c0,0,0,0-0.1,0c0,0,0,0-0.1,0c0,0,0,0,0,0
		c0,0,0,0,0,0c0.2-0.2,0.9-0.5,2.6-0.8C12.8,13.3,13.9,13.6,15,13.6z M1.8,17.2c0,0,0.1,0,0.1-0.1c0.1,0,0.2-0.1,0.3-0.1l0.1,0
		c0.1,0,0.1,0,0.2-0.1c0.2-0.1,0.4-0.1,0.7-0.2c0.2,0,0.4-0.1,0.6-0.1l0.1,0c0.1,0,0.3,0,0.5-0.1c1-0.1,2-0.2,3-0.2c0.3,0,0.6,0,1,0
		v1.9c-0.3,0-0.7,0-1,0c-0.2,0-0.4,0-0.6,0c-0.1,0-0.1,0-0.2,0c-0.1,0-0.3,0-0.4,0c-0.1,0-0.2,0-0.2,0c-0.1,0-0.2,0-0.3,0
		c-0.1,0-0.2,0-0.2,0c-0.1,0-0.2,0-0.3,0c-0.1,0-0.2,0-0.2,0c-0.1,0-0.2,0-0.3,0c-0.1,0-0.1,0-0.2,0c-0.1,0-0.2,0-0.2,0
		c-0.1,0-0.1,0-0.2,0s-0.1,0-0.2,0c-0.1,0-0.1,0-0.2,0c-0.1,0-0.1,0-0.2,0c-0.1,0-0.1,0-0.2,0c-0.1,0-0.1,0-0.2,0l-0.2,0
		c-0.1,0-0.1,0-0.2,0c-0.1,0-0.1,0-0.1,0c0,0-0.1,0-0.1,0c0,0-0.1,0-0.1,0c0,0-0.1,0-0.1,0c0,0-0.1,0-0.1,0c0,0-0.1,0-0.1,0
		c0,0-0.1,0-0.1,0c0,0,0,0-0.1,0c0,0,0,0-0.1,0c0,0,0,0-0.1,0c0,0,0,0,0,0c0,0,0,0,0,0C1.6,17.3,1.7,17.3,1.8,17.2z M7.3,27.1
		c-3.5,0-5.6-0.6-5.8-1v-1.8l0,0c0.1,0,0.2,0.1,0.3,0.1l0.1,0c0.1,0,0.2,0.1,0.3,0.1l0,0c0.1,0,0.2,0.1,0.4,0.1l0.1,0
		c0.1,0,0.3,0.1,0.4,0.1h0c0.1,0,0.3,0,0.4,0.1l0.1,0c0.1,0,0.3,0,0.4,0.1h0c0.1,0,0.3,0,0.4,0l0.1,0c0.1,0,0.3,0,0.4,0h0
		c0.1,0,0.3,0,0.4,0l0.1,0c0.1,0,0.2,0,0.4,0h0c0.1,0,0.2,0,0.3,0l0.1,0c0.1,0,0.2,0,0.3,0h0c0.1,0,0.2,0,0.3,0h0.1
		c0.2,0,0.3,0,0.4,0h0.1c0.3,0,0.5,0,0.8,0l0.2,0v1.9C7.9,27.1,7.6,27.1,7.3,27.1z M20.8,28c-0.2,0.4-2.3,1-5.8,1s-5.6-0.6-5.8-1
		v-1.8l0,0c0.1,0,0.2,0.1,0.3,0.1l0.1,0c0.1,0,0.2,0.1,0.3,0.1l0,0c0.1,0,0.2,0.1,0.4,0.1l0.1,0c0.1,0,0.3,0.1,0.4,0.1h0
		c0.1,0,0.3,0,0.4,0.1l0.1,0c0.1,0,0.3,0,0.4,0.1h0c0.1,0,0.3,0,0.4,0l0.1,0c0.1,0,0.3,0,0.4,0h0c0.1,0,0.3,0,0.4,0l0.1,0
		c0.1,0,0.2,0,0.4,0h0c0.1,0,0.2,0,0.3,0l0.1,0c0.1,0,0.2,0,0.3,0h0c0.1,0,0.2,0,0.3,0h0.1c0.2,0,0.3,0,0.4,0h0.3c0.1,0,0.2,0,0.4,0
		h0.1c0.1,0,0.2,0,0.3,0h0c0.1,0,0.2,0,0.3,0l0.1,0c0.1,0,0.2,0,0.3,0h0c0.1,0,0.2,0,0.4,0l0.1,0c0.1,0,0.2,0,0.4,0h0
		c0.1,0,0.3,0,0.4,0l0.1,0c0.1,0,0.3,0,0.4,0h0c0.1,0,0.3,0,0.4-0.1l0.1,0c0.1,0,0.3,0,0.4-0.1h0c0.1,0,0.3-0.1,0.4-0.1l0.1,0
		c0.1,0,0.2-0.1,0.4-0.1l0,0c0.1,0,0.2-0.1,0.3-0.1l0.1,0c0.1,0,0.2-0.1,0.3-0.1l0,0L20.8,28z M28.5,26.1c-0.2,0.4-2.3,1-5.8,1
		c-0.3,0-0.6,0-1,0v-1.9l0.2,0c0.3,0,0.5,0,0.8,0h0.1c0.1,0,0.2,0,0.4,0h0.1c0.1,0,0.2,0,0.3,0h0c0.1,0,0.2,0,0.3,0l0.1,0
		c0.1,0,0.2,0,0.3,0h0c0.1,0,0.2,0,0.4,0l0.1,0c0.1,0,0.2,0,0.4,0h0c0.1,0,0.3,0,0.4,0l0.1,0c0.1,0,0.3,0,0.4,0h0
		c0.1,0,0.3,0,0.4-0.1l0.1,0c0.1,0,0.3,0,0.4-0.1h0c0.1,0,0.3-0.1,0.4-0.1l0.1,0c0.1,0,0.2-0.1,0.4-0.1l0,0c0.1,0,0.2-0.1,0.3-0.1
		l0.1,0c0.1,0,0.2-0.1,0.3-0.1l0,0L28.5,26.1z"/>
	<g>
		<linearGradient id="SVGID_4_" gradientUnits="userSpaceOnUse" x1="12.9421" y1="6.7775" x2="17.0647" y2="6.7775">
			<stop  offset="0" style="stop-color:#4E60BC"/>
			<stop  offset="1" style="stop-color:#5157B5"/>
		</linearGradient>
		<path class="st3" d="M17,5c0,0-0.1,0-0.1,0h-0.8c-0.1-0.3-0.2-0.5-0.3-0.7h1.1c0,0,0.1,0,0.1,0c0,0,0-0.1,0-0.1V3.7
			c0,0,0-0.1,0-0.1c0,0-0.1,0-0.1,0h-3.8c0,0-0.1,0-0.1,0c0,0,0,0.1,0,0.1v0.6c0,0,0,0.1,0,0.1c0,0,0.1,0,0.1,0h0.7
			c0.6,0,1.1,0.2,1.2,0.5h-1.9C13,5,13,5,13,5c0,0,0,0.1,0,0.1v0.5c0,0,0,0.1,0,0.1c0,0,0.1,0,0.1,0h2C15,6,14.8,6.2,14.6,6.3
			c-0.2,0.1-0.6,0.2-1,0.2h-0.5c0,0-0.1,0-0.1,0c0,0,0,0.1,0,0.1v0.6c0,0,0,0.1,0,0.1c0.6,0.6,1.3,1.5,2.3,2.6c0,0,0.1,0.1,0.1,0.1
			h0.9c0.1,0,0.1,0,0.1-0.1c0-0.1,0-0.1,0-0.2c-0.9-1.1-1.6-1.9-2.1-2.5c0.5-0.1,0.9-0.2,1.3-0.5c0.3-0.3,0.5-0.6,0.6-1.1h0.8
			c0,0,0.1,0,0.1,0c0,0,0-0.1,0-0.1V5.1C17.1,5.1,17.1,5,17,5L17,5z"/>
	</g>
</g>
</svg>
